<svg version="1.1" id="Layer_1" xmlns="http://www.w3.org/2000/svg" xmlns:xlink="http://www.w3.org/1999/xlink" x="0px" y="0px"
	 width="100%" viewBox="0 0 2081 249" enable-background="new 0 0 2081 249" xml:space="preserve">
<path fill="#FEFFFF" opacity="1.000000" stroke="none"
	d="
M1568.000000,250.000000
	C1045.389282,250.000000 523.278503,250.000000 1.083894,250.000000
	C1.083894,167.064896 1.083894,84.129677 1.083894,1.097229
	C694.666687,1.097229 1388.333374,1.097229 2081.972168,1.097229
	C2081.972168,84.055069 2081.972168,167.027542 2081.972168,250.000000
	C1910.796021,250.000000 1739.648071,250.000000 1568.000000,250.000000
M229.513840,68.500214
	C229.513840,59.782986 229.513840,51.065758 229.513840,42.205410
	C206.984604,44.420448 185.639893,48.301952 165.002136,55.788185
	C130.397385,68.340866 103.057533,89.685226 84.514671,121.733421
	C83.590805,123.330154 83.370819,126.492790 84.337311,127.839935
	C91.584236,137.941147 98.084663,148.937851 106.927788,157.467819
	C135.842926,185.359024 171.994354,195.079086 211.130020,195.748199
	C220.458054,195.907669 227.664047,188.911087 229.011139,179.413498
	C229.430130,176.459518 229.491058,173.436295 229.493866,170.444565
	C229.525497,136.796478 229.513763,103.148346 229.513840,68.500214
M1490.149048,161.499969
	C1490.149048,143.172394 1490.263428,124.843330 1490.024780,106.518837
	C1489.989380,103.795860 1489.022339,100.406822 1487.233521,98.502869
	C1479.735718,90.522362 1472.430054,82.127548 1463.833252,75.457748
	C1439.896118,56.886242 1412.303833,45.784058 1382.934570,39.206570
	C1370.796631,36.488163 1358.395020,34.757931 1346.027954,33.305416
	C1334.392456,31.938839 1324.468628,40.412029 1324.454468,51.188831
	C1326.192261,51.370285 1327.972778,51.570011 1329.756348,51.740406
	C1364.443115,55.054375 1395.921143,66.070732 1422.286377,89.751755
	C1452.941040,117.285431 1464.064453,161.380371 1441.011353,197.628021
	C1440.710205,198.101364 1440.780029,198.810516 1440.637939,199.634369
	C1450.771606,199.634369 1460.596802,199.877213 1470.404907,199.572601
	C1482.531738,199.195969 1489.999146,191.208572 1490.135132,178.994629
	C1490.196411,173.497025 1490.147827,167.998199 1490.149048,161.499969
M1371.822632,68.678413
	C1356.420410,63.296005 1340.634155,59.931080 1324.210449,59.112141
	C1324.210449,66.703743 1324.210449,73.780952 1324.210449,80.639488
	C1329.885254,81.894760 1335.357056,82.706871 1340.558594,84.366051
	C1345.914307,86.074524 1351.168823,88.288986 1356.188721,90.832298
	C1394.807983,110.398621 1411.918945,158.292068 1381.450928,196.959534
	C1380.900146,197.658737 1380.562012,198.525543 1379.831543,199.842621
	C1396.449707,199.842621 1412.401855,199.911392 1428.350952,199.724274
	C1429.769287,199.707642 1431.625732,198.344009 1432.508667,197.071655
	C1450.038574,171.805710 1450.567139,141.349731 1433.925171,115.449471
	C1419.162842,92.474365 1397.547852,78.466125 1371.822632,68.678413
M1383.760254,139.944046
	C1375.199219,114.134308 1347.912109,92.874847 1324.256836,93.621681
	C1324.256836,128.967880 1324.256836,164.314499 1324.256836,200.035355
	C1336.697998,200.035355 1348.815063,200.106827 1360.928711,199.941238
	C1362.375854,199.921448 1364.081787,198.905472 1365.201294,197.854477
	C1381.826172,182.247726 1389.291382,163.585922 1383.760254,139.944046
M75.921677,109.958237
	C76.028725,110.085785 76.114906,110.248627 76.250107,110.328537
	C76.340912,110.382195 76.569206,110.368744 76.620201,110.299751
	C77.602959,108.970070 78.602531,107.650848 79.532722,106.284584
	C101.495888,74.025185 131.771729,53.143223 168.769821,41.837872
	C181.546921,37.933628 194.704910,35.275986 207.881546,32.001030
	C165.459747,32.001030 123.177277,31.940205 80.895958,32.133175
	C77.969528,32.146523 74.757881,33.575756 72.188652,35.168747
	C66.093636,38.947834 65.127762,45.365936 65.040642,51.813560
	C64.772377,71.669945 68.613365,90.804008 75.921677,109.958237
M113.499962,195.842102
	C131.474533,195.842102 149.449097,195.842102 167.423660,195.842102
	C129.216187,185.822220 99.020157,165.118484 79.871536,130.435852
	C66.984665,150.396606 61.928169,172.036057 65.814247,195.842087
	C81.240295,195.842087 96.870125,195.842087 113.499962,195.842102
M1471.638794,74.835495
	C1477.458618,80.842583 1483.278320,86.849670 1489.778320,93.558769
	C1489.778320,72.604462 1489.778320,53.062618 1489.778320,33.339077
	C1454.511597,33.339077 1419.545410,33.339077 1386.242554,33.339077
	C1399.908813,38.231861 1415.192139,43.156734 1430.034180,49.170353
	C1445.038574,55.249641 1458.544434,64.127388 1471.638794,74.835495
M1685.858887,189.459213
	C1685.858765,181.627182 1685.944214,173.793976 1685.836914,165.963409
	C1685.705078,156.340698 1679.828125,150.021698 1670.242554,150.319229
	C1664.645264,150.492950 1659.101685,152.395386 1652.240967,153.781265
	C1645.224976,148.047775 1635.568726,150.017380 1626.016724,151.402084
	C1621.672607,152.031815 1619.410156,154.057709 1620.012695,159.089005
	C1620.602905,164.017471 1620.140991,169.071915 1620.140991,174.071060
	C1620.140991,182.517120 1620.141113,190.963181 1620.141113,199.535751
	C1624.106445,199.535751 1627.495361,199.535751 1631.189575,199.535751
	C1631.189575,187.068069 1631.160400,174.920776 1631.229248,162.774033
	C1631.237183,161.372650 1631.642090,158.819275 1632.114258,158.758713
	C1635.664307,158.303284 1639.462524,157.629105 1642.797607,158.500015
	C1644.660522,158.986465 1646.709961,162.150650 1647.052490,164.359802
	C1647.760010,168.922546 1647.418213,173.653610 1647.439941,178.315750
	C1647.473145,185.418076 1647.448608,192.520691 1647.448608,199.644806
	C1651.295898,199.644806 1654.407104,199.644806 1658.016479,199.644806
	C1658.016479,197.820221 1658.016357,196.202484 1658.016357,194.584747
	C1658.016357,184.419830 1657.825684,174.248154 1658.184692,164.095917
	C1658.252686,162.170654 1660.071655,159.448761 1661.817627,158.592148
	C1668.848267,155.142563 1674.590942,158.873672 1674.787964,166.666977
	C1674.901611,171.163345 1674.810181,175.664917 1674.810425,180.164139
	C1674.810791,186.429260 1674.810425,192.694382 1674.810425,198.788467
	C1678.860107,198.788467 1682.244751,198.788467 1685.858887,198.788467
	C1685.858887,195.741547 1685.858887,193.093597 1685.858887,189.459213
M1533.444214,89.492905
	C1533.444214,90.658356 1533.444214,91.823814 1533.444214,92.989265
	C1533.444214,106.342300 1534.408447,107.311935 1548.239868,107.868790
	C1563.232300,108.472389 1572.297852,102.878410 1575.202637,89.104980
	C1576.835815,81.361328 1576.744019,72.865959 1575.509033,65.011162
	C1574.194458,56.649975 1569.664307,49.200108 1560.746704,46.408012
	C1551.554810,43.530087 1542.408325,44.196423 1533.444336,48.425335
	C1533.444336,61.869762 1533.444336,75.182800 1533.444214,89.492905
M278.556793,168.502701
	C278.556793,163.039078 278.556793,157.575455 278.556793,152.111816
	C287.581116,164.374878 295.866272,176.428345 303.311035,188.980316
	C306.370209,194.138092 309.964081,194.344284 314.758270,193.527603
	C314.758270,174.675476 314.758270,156.099945 314.758270,137.333984
	C312.064941,137.333984 309.632324,137.333984 306.454987,137.333984
	C306.454987,150.439758 306.454987,163.381973 306.454987,176.324188
	C297.927094,165.183441 290.492981,153.837601 283.035461,142.507172
	C278.905273,136.232025 278.411530,136.065552 270.362000,137.846573
	C270.362000,156.394775 270.362000,174.973877 270.362000,193.714462
	C273.131897,193.714462 275.672668,193.714462 278.556580,193.714462
	C278.556580,185.442810 278.556580,177.472290 278.556793,168.502701
M1702.829956,151.160980
	C1698.409546,151.853760 1696.559570,153.922256 1696.832275,158.874100
	C1697.353271,168.332489 1696.983643,177.839935 1696.983643,187.327026
	C1696.983643,197.431702 1696.983521,207.536377 1696.983521,217.765015
	C1700.673828,217.765015 1703.904419,217.765015 1707.624756,217.765015
	C1707.624756,211.441147 1707.624756,205.358231 1707.624756,200.866516
	C1714.414551,199.204330 1720.937500,198.849548 1726.164673,196.063507
	C1736.350220,190.634720 1739.612915,175.322769 1734.375000,162.683441
	C1731.773438,156.406021 1727.156860,152.006592 1720.490234,151.075699
	C1714.989990,150.307693 1709.285889,151.000015 1702.829956,151.160980
M1744.787964,184.899445
	C1745.456299,194.009094 1749.113647,198.950623 1757.902222,199.505936
	C1765.058838,199.958099 1772.363525,198.479248 1779.556519,197.514420
	C1780.682739,197.363373 1782.414429,195.402527 1782.430176,194.258682
	C1782.627319,179.986084 1782.559326,165.709808 1782.559326,151.206573
	C1778.714966,151.206573 1775.308472,151.206573 1771.690430,151.206573
	C1771.593994,152.352493 1771.443115,153.321335 1771.441528,154.290421
	C1771.424316,165.270554 1771.264771,176.254578 1771.521484,187.228729
	C1771.608276,190.936951 1770.107300,192.254623 1766.803711,192.721481
	C1759.523804,193.750214 1755.899048,190.634918 1755.878296,183.069427
	C1755.849854,172.661453 1755.871216,162.253326 1755.871216,151.781342
	C1751.833862,151.781342 1748.454102,151.781342 1744.787598,151.781342
	C1744.787598,162.753677 1744.787598,173.380112 1744.787964,184.899445
M1756.637939,103.202133
	C1767.264404,93.519409 1765.257446,78.661903 1752.437988,72.327713
	C1749.762451,71.005699 1746.874146,70.072090 1744.314697,68.567039
	C1740.348511,66.234787 1738.801147,61.444164 1740.532593,57.269356
	C1742.334351,52.925537 1745.945679,51.531971 1750.301758,52.260651
	C1752.826538,52.682999 1755.242798,53.754601 1757.938354,54.606880
	C1758.641113,52.426842 1759.330200,50.289383 1760.456787,46.794842
	C1754.867188,46.118809 1750.042603,45.021503 1745.228638,45.066513
	C1736.781616,45.145485 1730.115967,51.112740 1728.333740,59.327763
	C1726.707642,66.823334 1730.530151,74.417358 1737.944214,78.316246
	C1740.587769,79.706436 1743.432739,80.767052 1745.923950,82.381897
	C1749.711304,84.836945 1750.848877,88.675476 1749.774292,92.886185
	C1748.698975,97.098877 1745.548584,99.329521 1741.251587,99.127510
	C1737.559937,98.953964 1733.899170,98.120171 1729.808716,97.517006
	C1729.193115,99.558960 1728.453003,102.013283 1727.622803,104.766747
	C1737.652588,108.739090 1746.985229,109.824089 1756.637939,103.202133
M1903.993164,92.495766
	C1903.993164,97.260681 1903.993164,102.025604 1903.993164,106.739960
	C1908.024658,106.739960 1911.447266,106.739960 1915.019653,106.739960
	C1915.019653,94.845314 1915.235718,83.210747 1914.934082,71.589607
	C1914.768066,65.196640 1910.416016,59.926674 1904.023804,59.093124
	C1897.850220,58.288074 1891.416992,58.346153 1885.225342,59.088547
	C1877.100098,60.062782 1877.153931,60.510887 1877.153931,68.848900
	C1877.153931,74.346832 1877.153931,79.844772 1877.153931,85.342705
	C1877.153931,92.452423 1877.153809,99.562141 1877.153809,106.656456
	C1881.102783,106.656456 1884.483643,106.656456 1888.074341,106.656456
	C1888.074341,93.005249 1888.074341,79.703545 1888.074341,66.483612
	C1901.293457,61.720413 1904.900879,67.822380 1904.077881,76.510513
	C1903.608643,81.464195 1903.993164,86.498734 1903.993164,92.495766
M1981.095947,99.972153
	C1973.915039,97.944817 1971.282104,94.595139 1971.163208,87.026405
	C1980.677979,85.322021 1990.247070,83.607903 2000.228882,81.819839
	C1999.884644,78.731842 1999.741821,75.925453 1999.235474,73.186241
	C1997.468018,63.622707 1992.075684,58.257732 1983.370239,57.198711
	C1974.424805,56.110504 1966.447266,60.435417 1962.994873,69.025612
	C1961.422241,72.938530 1960.467773,77.359383 1960.406860,81.566826
	C1960.276001,90.608925 1961.806152,99.518135 1970.590210,104.456383
	C1979.655029,109.552528 1989.006836,108.056396 1998.675903,104.177246
	C1997.731934,101.690674 1996.961792,99.662239 1996.494019,98.429787
	C1991.068237,99.032883 1986.506836,99.539917 1981.095947,99.972153
M1856.638550,107.108955
	C1860.071655,106.245338 1863.504883,105.381721 1867.191162,104.454422
	C1866.058594,101.634644 1865.277222,99.689552 1864.512695,97.786163
	C1847.199585,102.477165 1840.480591,99.667313 1839.133545,87.075516
	C1848.694214,85.362297 1858.284668,83.643700 1868.201294,81.866692
	C1868.064209,79.138474 1868.138428,76.648712 1867.782471,74.222054
	C1866.314209,64.210365 1860.672729,58.323059 1851.689453,57.221970
	C1842.555420,56.102386 1834.515259,60.491482 1831.085571,69.479622
	C1829.478271,73.691902 1828.925537,78.523796 1828.894409,83.081711
	C1828.775513,100.567215 1838.514893,109.125473 1856.638550,107.108955
M1606.064819,154.462433
	C1598.128052,148.656433 1585.159546,148.493576 1576.538452,154.215775
	C1577.238281,155.982315 1577.954590,157.790436 1578.533325,159.251663
	C1583.299072,158.461273 1587.650024,157.274216 1592.037598,157.118851
	C1598.975464,156.873123 1601.706177,160.629333 1600.497192,166.743378
	C1593.813354,168.795761 1587.324097,170.263947 1581.277710,172.791580
	C1575.140503,175.357040 1573.166504,180.223785 1573.878296,187.616135
	C1574.424194,193.287888 1578.054321,197.505844 1584.155884,198.998383
	C1591.932495,200.900726 1599.715942,200.481247 1607.218750,197.753296
	C1608.537720,197.273712 1610.010498,195.037308 1610.050537,193.574966
	C1610.305786,184.264343 1610.505859,174.925980 1610.013672,165.634354
	C1609.823608,162.042877 1607.778442,158.549622 1606.064819,154.462433
M1694.310791,66.440529
	C1692.673096,64.614105 1691.381714,62.067055 1689.338257,61.085228
	C1680.202148,56.695499 1671.111084,57.892841 1661.886841,61.966579
	C1662.922119,64.132416 1663.739746,65.843170 1664.521606,67.478760
	C1681.508545,62.676083 1686.947754,64.626617 1686.413452,74.665543
	C1679.983521,76.559639 1673.494141,77.957008 1667.425537,80.399734
	C1661.011963,82.981308 1658.650635,88.326294 1659.520630,95.478394
	C1660.280396,101.725204 1663.954468,105.886696 1670.818115,106.976601
	C1675.864868,107.778008 1681.103271,108.064178 1686.198120,107.720535
	C1695.282715,107.107796 1696.178833,106.004105 1695.965332,96.945160
	C1695.730957,87.000786 1695.144775,77.064705 1694.310791,66.440529
M1587.636108,102.808723
	C1598.249146,110.614098 1609.436768,108.622368 1620.887939,105.262909
	C1620.887939,94.105415 1621.077881,83.454918 1620.816284,72.815521
	C1620.660400,66.468498 1617.682495,61.448517 1611.268066,59.645588
	C1603.020630,57.327465 1594.905762,57.995274 1586.944214,62.074570
	C1587.872681,64.074234 1588.679565,65.811905 1589.463501,67.500374
	C1606.594482,62.686523 1611.348877,64.332077 1611.457764,74.831734
	C1605.713745,76.370087 1599.804443,77.420273 1594.307373,79.539932
	C1584.049316,83.495384 1581.376465,92.638313 1587.636108,102.808723
M1546.233765,138.505798
	C1543.504028,140.889069 1540.266479,142.889801 1538.133057,145.722260
	C1529.242798,157.525375 1529.239868,178.780411 1537.777588,190.913330
	C1544.638062,200.662292 1557.625610,203.118423 1568.050781,196.367462
	C1567.259155,194.220093 1566.440674,191.999496 1565.623413,189.782639
	C1556.810669,193.069351 1550.150635,191.253860 1547.248291,184.488525
	C1542.499023,173.418289 1542.575806,162.158859 1547.496826,151.116882
	C1549.329346,147.005051 1552.730347,144.662521 1557.389771,144.862518
	C1560.128418,144.980042 1562.849609,145.507721 1565.853149,145.885452
	C1566.535400,144.089005 1567.280029,142.128708 1568.158203,139.816513
	C1561.136230,135.817307 1554.139648,135.724945 1546.233765,138.505798
M497.717194,153.866623
	C494.857971,152.272293 492.076202,149.514191 489.123901,149.317642
	C482.258087,148.860565 475.305115,149.552368 468.397308,149.949921
	C464.638519,150.166245 463.208008,152.130737 463.329437,156.147842
	C463.641113,166.460175 463.433533,176.788193 463.433533,187.109940
	C463.433533,189.347076 463.433563,191.584229 463.433563,193.658142
	C467.113037,193.658142 470.008118,193.658142 473.301666,193.658142
	C473.301666,180.720337 473.301666,168.145554 473.301666,155.383438
	C475.465851,155.081360 477.251556,154.706879 479.052948,154.601883
	C487.832184,154.090179 490.788361,156.912216 490.790100,165.697174
	C490.791962,175.006866 490.790527,184.316544 490.790527,193.699005
	C494.151184,193.699005 497.197205,193.699005 500.405487,193.699005
	C500.405487,182.746216 500.537872,172.113724 500.302734,161.489365
	C500.250702,159.138107 498.899567,156.815613 497.717194,153.866623
M415.317688,167.045364
	C415.262177,169.698181 414.892853,172.388977 415.208435,174.996902
	C416.264282,183.722702 419.446991,191.118927 428.728546,194.010605
	C440.065125,197.542511 450.514404,192.498993 454.067902,181.885452
	C458.616150,168.300766 453.659424,153.751160 443.102966,149.722443
	C442.333130,149.428650 441.550018,149.142792 440.748383,148.963425
	C427.718536,146.047821 418.238831,152.542068 415.317688,167.045364
M594.756653,156.528992
	C597.336853,159.614075 599.581177,163.096085 602.606079,165.655594
	C604.924011,167.616913 608.231934,168.403976 611.091553,169.730621
	C615.323730,171.694031 618.481934,174.478256 617.643311,179.674774
	C616.878174,184.414948 612.698486,187.550812 606.877197,187.355469
	C603.145386,187.230255 599.443237,186.220154 595.416748,185.555374
	C594.700195,187.439484 593.908813,189.520386 593.135498,191.553757
	C601.105408,195.594193 610.572083,196.137054 617.575867,193.094269
	C624.315063,190.166458 628.035950,185.035645 628.341492,177.682358
	C628.643616,170.410538 624.596375,165.922104 618.350525,163.046509
	C615.488220,161.728714 612.539246,160.592758 609.713196,159.204132
	C605.966309,157.363007 603.619141,154.629883 604.614075,150.075806
	C605.612854,145.503876 608.710876,143.120193 613.114319,143.116348
	C616.838806,143.113098 620.564087,144.059814 624.669434,144.639862
	C625.198730,143.178421 625.855957,141.363617 626.626282,139.236664
	C620.324341,136.273361 614.167664,135.131149 607.562195,136.825256
	C598.359070,139.185577 593.440674,146.281723 594.756653,156.528992
M279.321808,101.297462
	C292.788452,109.457214 307.638550,104.729530 312.743256,90.383675
	C316.255188,80.514030 316.232025,70.446114 312.525391,60.588421
	C309.123749,51.541862 301.650970,46.497990 292.202637,46.462311
	C282.702423,46.426437 275.370636,51.348789 271.959930,60.553551
	C270.647552,64.095451 269.636566,67.908226 269.392090,71.656525
	C268.682739,82.532150 269.787292,92.999947 279.321808,101.297462
M689.815186,164.380692
	C683.262085,166.046112 676.518921,167.198364 670.213501,169.532700
	C664.770447,171.547775 662.244385,176.270157 662.710022,182.308563
	C663.148865,187.999466 665.884399,191.697311 671.731262,193.522888
	C679.946106,196.087814 688.195618,195.433029 696.261169,192.809021
	C697.388428,192.442291 698.718201,190.523102 698.744995,189.296219
	C698.941040,180.307968 699.037964,171.306046 698.739319,162.322617
	C698.543152,156.420868 695.916138,151.740891 689.884705,149.737457
	C681.600586,146.985718 673.702515,148.458206 665.582214,151.626343
	C666.436096,153.593857 667.075195,155.066315 667.568359,156.202621
	C672.191528,155.622086 676.431396,154.709839 680.684570,154.643005
	C687.373901,154.537933 689.419250,156.755325 689.815186,164.380692
M531.554321,148.806793
	C524.472900,147.534149 517.789612,148.936478 510.886292,151.605896
	C511.765717,153.539734 512.489746,155.131882 513.194336,156.681335
	C530.894226,151.359329 537.228577,156.580460 534.940430,163.946854
	C528.246887,165.821060 521.692444,167.083267 515.610291,169.522919
	C509.703339,171.892303 507.441254,176.827423 508.013123,182.791992
	C508.530640,188.189880 512.032593,192.257843 518.027832,193.851257
	C525.788513,195.913879 533.573730,195.433884 541.116333,192.865112
	C542.451538,192.410416 544.009277,190.199966 544.052673,188.757767
	C544.308228,180.276047 544.307678,171.777359 544.077820,163.292923
	C543.850098,154.884628 540.643555,151.170746 531.554321,148.806793
M355.636658,193.113617
	C356.762970,191.803116 358.822693,190.521774 358.864685,189.177399
	C359.145355,180.193207 359.148071,171.191849 358.929688,162.203644
	C358.795044,156.662689 356.397308,152.141495 350.948700,150.057266
	C342.420013,146.794815 334.184418,148.379608 325.740967,151.652466
	C326.666779,153.651260 327.343262,155.111801 327.996490,156.522141
	C345.212036,152.475143 350.415131,154.404114 349.864105,164.041885
	C343.520721,165.726334 337.126831,166.897598 331.143433,169.156281
	C324.737610,171.574417 322.343903,176.436996 322.977936,183.011795
	C323.512054,188.550583 327.181793,193.216415 333.611145,193.840698
	C340.595673,194.518875 347.738312,193.568390 355.636658,193.113617
M1789.920044,196.222610
	C1795.132568,200.109009 1801.132202,199.970245 1807.080200,199.215088
	C1814.375244,198.288895 1819.219604,193.586090 1819.973389,187.335159
	C1820.768555,180.742844 1817.508789,175.404541 1810.872192,172.275864
	C1808.479126,171.147720 1805.677002,170.318878 1803.958618,168.503998
	C1802.528198,166.993225 1801.411865,163.913773 1801.993774,162.127975
	C1802.570435,160.358490 1805.335327,158.453705 1807.339355,158.203979
	C1810.096558,157.860443 1813.040527,159.017303 1816.188843,159.582382
	C1816.832397,157.885147 1817.519409,156.073608 1818.172485,154.351410
	C1812.443604,150.001450 1802.271118,149.439606 1796.793335,152.984619
	C1788.232666,158.524765 1788.670410,171.192459 1797.658203,176.115631
	C1799.827637,177.303925 1802.219482,178.083008 1804.498779,179.074219
	C1807.776367,180.499664 1809.604858,182.899673 1808.845337,186.555588
	C1808.097656,190.153702 1805.443359,192.048218 1801.978882,191.871979
	C1798.768433,191.708649 1795.603271,190.655975 1792.070068,189.922699
	C1791.450562,191.443954 1790.641968,193.429520 1789.920044,196.222610
M1641.545044,46.282352
	C1639.358521,46.946056 1637.172119,47.609756 1634.601562,48.390022
	C1634.601562,51.987843 1634.601562,55.399883 1634.601562,58.807819
	C1632.513306,58.954609 1630.903809,59.067749 1629.173218,59.189392
	C1629.173218,61.571285 1629.173218,63.675060 1629.173218,65.895271
	C1631.060303,66.127274 1632.782837,66.339043 1634.818359,66.589294
	C1634.818359,76.347404 1634.725830,85.819405 1634.847534,95.288651
	C1634.944946,102.862007 1639.854370,107.683350 1647.396973,107.943764
	C1654.037109,108.173012 1654.371338,107.785660 1653.382568,101.006981
	C1646.570068,100.138885 1645.884521,99.373543 1645.853882,92.562759
	C1645.843384,90.230209 1645.852295,87.897583 1645.852295,85.564987
	C1645.852295,79.151917 1645.852295,72.738846 1645.852295,66.379738
	C1648.951538,66.200981 1651.220947,66.070091 1653.592773,65.933296
	C1653.592773,63.521034 1653.592773,61.449535 1653.592773,59.213364
	C1650.938354,59.048786 1648.520142,58.898838 1645.701172,58.724056
	C1645.701172,54.193703 1645.701172,49.953564 1645.701172,45.479107
	C1644.263184,45.740566 1643.291626,45.917202 1641.545044,46.282352
M1930.479370,62.967155
	C1921.763062,73.639977 1921.326660,91.110657 1929.517700,101.457039
	C1935.443726,108.942413 1946.253052,110.299171 1954.291260,104.245392
	C1953.514160,102.270401 1952.690918,100.178223 1951.864990,98.079185
	C1942.910889,101.769699 1937.352417,99.331413 1935.813232,90.195145
	C1934.871704,84.607147 1935.197266,78.576714 1936.171265,72.955917
	C1937.262329,66.659943 1942.449341,64.107544 1948.679321,65.598885
	C1949.722046,65.848511 1950.748901,66.164146 1951.958496,66.497635
	C1952.668335,64.257187 1953.253784,62.409237 1953.816040,60.634346
	C1946.092163,56.020992 1938.024536,56.738503 1930.479370,62.967155
M1781.454956,106.301476
	C1787.977417,108.706848 1794.298950,109.199699 1800.451294,104.451675
	C1799.542236,102.133392 1798.722656,100.043304 1797.895508,97.933983
	C1789.451172,101.700974 1783.549805,99.358215 1782.136475,90.974670
	C1781.141724,85.074005 1781.426514,78.760277 1782.297607,72.800217
	C1783.101074,67.302864 1787.520752,64.722610 1792.945923,65.232643
	C1794.639282,65.391838 1796.288086,66.024895 1798.140137,66.486626
	C1798.806030,64.382599 1799.394775,62.522243 1799.964844,60.721207
	C1792.425171,55.888302 1783.034912,56.874474 1776.898804,62.635101
	C1766.283936,72.600624 1767.494507,98.946060 1781.454956,106.301476
M523.812317,66.413994
	C518.950439,74.899773 518.765503,83.858253 521.674561,92.879997
	C524.365662,101.225807 530.725342,105.364906 539.500549,105.179832
	C547.943420,105.001762 554.470825,100.758888 556.288696,92.349449
	C557.616455,86.207207 557.650269,79.503098 556.802673,73.246979
	C555.827942,66.051956 551.271240,60.657749 543.763794,59.209255
	C536.204773,57.750801 529.132019,58.897854 523.812317,66.413994
M888.322754,195.010788
	C891.493103,194.151154 894.892212,193.754120 897.781433,192.325821
	C902.367859,190.058533 905.054077,186.157776 905.023926,180.754883
	C904.993652,175.333481 901.724243,172.304764 897.251587,170.202072
	C894.553284,168.933548 891.399231,168.282898 889.176697,166.465775
	C887.415466,165.025925 885.458435,161.867523 885.946228,160.136993
	C886.538574,158.035660 889.412842,155.602539 891.652466,155.179382
	C894.674133,154.608444 898.031921,155.816391 901.672363,156.320038
	C902.190063,155.170731 902.913757,153.564255 903.784363,151.631516
	C896.442200,148.082870 889.315430,146.996979 882.166260,150.925339
	C877.751221,153.351334 875.606934,157.343216 875.867676,162.516525
	C876.108093,167.286697 878.969543,170.028809 882.978638,171.869858
	C885.388062,172.976303 887.885437,173.889862 890.310913,174.963257
	C893.694092,176.460449 895.859680,178.908783 894.891357,182.777145
	C893.962646,186.487320 891.001465,188.204422 887.383301,188.053894
	C883.816406,187.905518 880.276306,187.111359 876.382751,186.551376
	C875.828491,187.970856 875.130981,189.757233 874.023621,192.593384
	C878.812683,193.459305 883.120605,194.238235 888.322754,195.010788
M764.441406,149.697891
	C759.012268,151.881561 755.671509,155.713058 755.586975,161.719635
	C755.500061,167.899002 759.729492,170.729858 764.787292,172.753540
	C766.633728,173.492310 768.532104,174.129623 770.305664,175.015671
	C773.343201,176.533127 775.634155,178.817474 774.804321,182.484619
	C773.972229,186.161758 771.159302,188.150864 767.488281,188.037720
	C763.779785,187.923416 760.092102,187.132599 756.152466,186.605652
	C755.534607,188.106430 754.812134,189.861267 754.115479,191.553360
	C762.191040,196.030945 771.813904,196.147461 778.246582,192.054291
	C782.486389,189.356415 784.987976,185.535278 784.752563,180.469070
	C784.522278,175.513397 781.541748,172.259766 777.132996,170.260345
	C774.265747,168.959976 770.990723,168.189774 768.620544,166.283951
	C766.863098,164.870895 765.068481,161.746658 765.485229,159.872818
	C765.917236,157.930405 768.831055,155.538177 770.950928,155.206665
	C774.168945,154.703445 777.638672,155.809799 781.413208,156.284195
	C781.941101,155.049271 782.628357,153.441269 783.372253,151.700882
	C777.285400,148.308701 771.343140,147.850830 764.441406,149.697891
M639.419128,160.549805
	C639.419434,167.882339 639.317078,175.216690 639.448059,182.546890
	C639.587769,190.363342 644.258850,194.828186 652.049072,194.877594
	C657.453186,194.911865 657.918091,194.354416 657.044678,188.748566
	C653.339600,188.540848 649.255737,188.288727 649.124878,183.320511
	C648.884338,174.187897 649.056274,165.044418 649.056274,155.778183
	C652.038696,155.624695 654.629944,155.491333 657.597168,155.338623
	C657.499390,153.186020 657.420959,151.459335 657.328796,149.430481
	C654.375610,149.430481 651.921997,149.430481 649.013977,149.430481
	C649.013977,145.187271 649.013977,141.264450 649.013977,137.588425
	C640.308716,137.041321 637.990417,141.693771 639.458801,149.066681
	C637.067139,149.344955 635.291077,149.551605 633.420776,149.769211
	C633.420776,151.692200 633.420776,153.425491 633.420776,155.231140
	C636.111389,155.988510 640.420593,154.350601 639.419128,160.549805
M808.882202,188.036728
	C807.805359,186.485733 805.848938,184.963593 805.796936,183.379013
	C805.498413,174.281921 805.651611,165.170029 805.651611,155.833389
	C808.678284,155.641571 811.240601,155.479187 814.075256,155.299530
	C813.967285,153.152603 813.880188,151.421555 813.789673,149.622086
	C810.913513,149.458374 808.477722,149.319733 805.601318,149.156021
	C805.601318,145.111160 805.601318,141.357590 805.601318,136.970032
	C802.221252,138.004929 798.267883,138.039337 796.927795,139.928024
	C795.310425,142.207275 795.909424,146.059250 795.554749,149.180679
	C793.521179,149.396851 791.767395,149.583282 790.122070,149.758179
	C790.122070,151.856583 790.122070,153.606552 790.122070,155.346268
	C792.219604,155.549866 793.979736,155.720734 795.972290,155.914154
	C795.972290,164.802780 795.868042,173.452866 795.999390,182.099365
	C796.153564,192.250488 804.423767,197.504242 813.790527,193.563934
	C813.790527,191.951752 813.790527,190.350296 813.790527,188.767410
	C812.278503,188.584427 811.000793,188.429810 808.882202,188.036728
M463.098419,68.594444
	C458.828064,55.973080 439.505005,55.747135 432.440216,65.194237
	C426.164642,73.585999 426.047150,90.110847 432.517639,98.075638
	C438.712372,105.700989 452.342316,107.476326 463.112915,101.852722
	C462.612122,100.585709 462.097168,99.282951 461.596375,98.015923
	C443.511414,102.580727 433.092773,97.331024 434.657440,84.560143
	C444.744080,83.116089 454.858459,81.668068 465.650238,80.123070
	C464.806549,76.047279 464.109619,72.680489 463.098419,68.594444
M716.237305,192.377899
	C720.411072,195.035294 724.796448,195.709839 729.656799,193.850418
	C729.656799,192.178497 729.656799,190.567322 729.656799,188.719040
	C725.503723,188.712997 721.486755,187.966553 721.328247,182.972809
	C721.044556,174.032166 721.248291,165.076050 721.248291,155.845001
	C724.194031,155.644623 726.784668,155.468414 729.590942,155.277527
	C729.590942,153.352859 729.590942,151.629654 729.590942,149.700485
	C726.757874,149.518921 724.171753,149.353195 721.170166,149.160843
	C721.170166,145.078461 721.170166,141.311508 721.170166,137.786865
	C712.084961,136.861237 710.748108,142.252548 711.787231,149.105469
	C709.380920,149.381775 707.617615,149.584244 705.829712,149.789551
	C705.829712,151.781921 705.829712,153.497086 705.829712,155.256409
	C707.959961,155.498947 709.726990,155.700134 711.814209,155.937775
	C711.814209,164.612915 711.450684,173.100403 711.987305,181.530624
	C712.212097,185.062836 714.345337,188.473587 716.237305,192.377899
M371.988312,179.369431
	C371.990417,192.013550 378.486481,197.344971 389.702789,193.845169
	C389.702789,192.129913 389.702789,190.400955 389.702789,188.507553
	C385.358276,188.866074 381.699982,187.910507 381.540100,183.197754
	C381.232239,174.123322 381.450378,165.031067 381.450378,155.770920
	C384.391541,155.612289 387.010193,155.471069 389.783447,155.321487
	C389.783447,153.361343 389.783447,151.610123 389.783447,149.670502
	C386.950012,149.525650 384.330963,149.391754 381.108032,149.226974
	C381.108032,145.180908 381.108032,141.318222 381.108032,136.982742
	C377.755188,138.102188 373.933990,138.230713 372.753845,140.061584
	C371.269165,142.364883 371.944489,146.060486 371.682495,149.218750
	C369.800293,149.397202 368.008392,149.567108 366.098083,149.748230
	C366.098083,151.666748 366.098083,153.412140 366.098083,155.296753
	C368.133545,155.480133 369.905731,155.639801 371.988312,155.827423
	C371.988312,163.469650 371.988312,170.936768 371.988312,179.369431
M562.993835,193.758743
	C563.185974,192.139236 563.541687,190.520065 563.545227,188.900146
	C563.584900,170.742462 563.570312,152.584656 563.570312,134.426880
	C563.570312,132.803284 563.570312,131.179688 563.570312,129.427246
	C560.102600,129.427246 557.207275,129.427246 554.305054,129.427246
	C554.305054,151.110931 554.305054,172.498489 554.305054,193.999405
	C557.126526,193.999405 559.617615,193.999405 562.993835,193.758743
M864.522888,187.627716
	C856.844543,188.762787 852.299744,186.339279 850.500122,179.256165
	C849.542786,175.488251 849.196350,171.312042 849.708740,167.471497
	C851.218079,156.158310 856.775269,152.928696 868.053955,156.437836
	C868.647034,154.814880 869.244812,153.178879 869.816956,151.613266
	C859.277222,145.193207 846.905640,148.476059 842.037842,159.042694
	C838.148499,167.485306 838.200500,176.254166 842.213562,184.633621
	C847.352783,195.364792 861.500916,198.597305 870.151978,190.987061
	C868.096619,190.166153 869.981201,184.838013 864.522888,187.627716
M336.679047,59.950008
	C332.412262,55.151031 334.957306,45.735649 341.301758,44.168835
	C344.952820,43.267178 344.353821,41.773815 343.001770,38.561096
	C339.463470,39.990601 335.742798,40.744671 332.954071,42.777378
	C327.256104,46.930653 328.763153,53.768620 328.130829,60.054077
	C325.896362,60.054077 323.973785,60.054077 321.985718,60.054077
	C320.959290,66.424614 326.678375,62.376526 328.525391,65.213074
	C328.525391,77.658104 328.525391,90.733582 328.525391,103.936150
	C330.842804,103.936150 332.757568,103.936150 334.996063,103.936150
	C334.996063,90.544609 334.996063,77.446236 334.996063,64.398140
	C344.045288,63.150867 344.045288,63.150867 343.544006,59.958778
	C341.570374,59.958778 339.575806,59.958778 336.679047,59.950008
M370.847839,40.803654
	C370.081360,40.354317 369.315918,39.517723 368.548248,39.515656
	C361.034485,39.495380 355.880188,44.355167 355.133331,52.114529
	C354.884705,54.697544 354.862061,57.302315 354.738312,59.851627
	C352.501007,59.955521 350.702118,60.039055 348.654358,60.134151
	C347.728363,66.131042 353.176727,62.550034 355.004944,64.852928
	C355.004944,77.584694 355.004944,90.691666 355.004944,103.830696
	C357.349854,103.830696 359.392700,103.830696 361.833374,103.830696
	C361.833374,90.362595 361.833374,77.285660 361.833374,63.880390
	C364.200073,63.880390 366.241058,64.186546 368.122742,63.771114
	C369.346649,63.500896 370.338593,62.180016 371.434479,61.329834
	C371.155731,60.840935 370.876984,60.352032 370.598236,59.863132
	C367.671387,59.863132 364.744568,59.863132 361.757690,59.863132
	C361.685852,58.427628 361.598358,57.438835 361.593140,56.449604
	C361.560944,50.344158 361.850769,44.463478 369.979889,43.629387
	C370.344391,43.591991 370.579041,42.289223 370.847839,40.803654
M1808.149536,74.504211
	C1808.149536,85.242912 1808.149536,95.981621 1808.149536,106.702576
	C1812.160767,106.702576 1815.560791,106.702576 1818.896729,106.702576
	C1818.896729,90.696159 1818.896729,74.999130 1818.896729,59.311317
	C1815.217041,59.311317 1811.830811,59.311317 1808.149536,59.311317
	C1808.149536,64.253746 1808.149536,68.880005 1808.149536,74.504211
M506.188995,79.504120
	C506.188995,74.389503 506.188995,69.274887 506.188995,64.237167
	C515.399170,63.300175 515.399170,63.300175 515.489380,60.169651
	C512.572998,60.037037 509.648193,59.904041 506.710327,59.770447
	C506.644165,58.565884 506.570160,57.737408 506.557617,56.907997
	C506.467377,50.947361 506.050110,44.851997 514.309937,43.625149
	C514.885315,43.539688 515.125061,41.194424 515.594238,39.660122
	C503.389587,39.958199 501.833038,42.009590 499.528625,59.801861
	C497.480713,59.948380 495.394379,60.097649 493.292480,60.248032
	C492.605621,66.546890 498.157654,62.268593 500.077148,64.966560
	C500.077148,77.582840 500.077148,90.685272 500.077148,103.816338
	C502.284119,103.816338 504.140442,103.816338 506.188995,103.816338
	C506.188995,95.799492 506.188995,88.150902 506.188995,79.504120
M393.877472,78.133087
	C393.923767,81.127281 393.709808,84.152374 394.060974,87.110374
	C395.660828,100.586334 407.392914,108.323479 419.474487,104.138199
	C423.115173,102.876999 423.976746,101.187790 421.289001,98.201141
	C411.069092,102.274803 403.726288,98.988228 401.291565,88.966675
	C400.521332,85.796303 400.226593,82.339111 400.562439,79.101158
	C401.976685,65.465981 408.685913,61.063816 421.590332,65.020439
	C423.880524,62.672543 423.303101,61.034248 420.319733,60.014656
	C408.026276,55.813282 395.994781,61.578945 393.877472,78.133087
M821.451965,151.169937
	C821.451965,165.382904 821.451965,179.595856 821.451965,193.782166
	C825.090515,193.782166 828.018433,193.782166 830.961548,193.782166
	C830.961548,178.960129 830.961548,164.385574 830.961548,149.074173
	C827.630005,149.520905 824.628662,149.923370 821.451965,151.169937
M407.028229,178.496826
	C407.028229,168.924896 407.028229,159.352966 407.028229,149.802368
	C403.520294,149.802368 400.635468,149.802368 397.758636,149.802368
	C397.758636,164.713486 397.758636,179.248154 397.758636,193.713470
	C401.006866,193.713470 403.909119,193.713470 407.028229,193.713470
	C407.028229,188.765533 407.028229,184.130493 407.028229,178.496826
M737.125793,189.324738
	C737.202332,190.774811 737.278870,192.224899 737.361511,193.790924
	C740.587158,193.790924 743.504089,193.790924 746.589111,193.790924
	C746.589111,179.006393 746.589111,164.460403 746.589111,149.721268
	C743.388062,149.721268 740.475342,149.721268 737.125732,149.721268
	C737.125732,162.791656 737.125732,175.574158 737.125793,189.324738
M569.675659,104.223831
	C572.154297,104.596947 573.163086,103.806084 573.100769,101.039398
	C572.913879,92.738022 573.033508,84.429741 573.033508,76.124153
	C573.033508,63.076889 573.033569,63.076889 586.040100,63.728989
	C586.435242,62.282761 586.846741,60.776936 587.570679,58.127384
	C581.183838,58.942799 575.645996,59.553959 570.143372,60.395306
	C567.625916,60.780212 566.283997,62.115616 566.333740,65.141762
	C566.530029,77.098587 566.351868,89.061417 566.520874,101.019089
	C566.536133,102.097366 568.045959,103.154510 569.675659,104.223831
M377.966339,65.694290
	C377.966339,78.431259 377.966339,91.168228 377.966339,103.941261
	C380.391327,103.941261 382.310455,103.941261 384.267273,103.941261
	C384.267273,89.140259 384.267273,74.623795 384.267273,60.039875
	C382.017151,60.039875 380.088440,60.039875 377.966339,60.039875
	C377.966339,61.784912 377.966339,63.273308 377.966339,65.694290
M71.767204,112.666939
	C69.640434,106.592514 67.513672,100.518089 65.361877,94.372192
	C65.361877,106.316269 65.361877,118.103317 65.361877,130.824539
	C67.850052,126.125099 70.047844,122.401443 71.782875,118.473389
	C72.419945,117.031082 71.962189,115.105179 71.767204,112.666939
M1819.070435,47.511089
	C1820.677734,44.036572 1819.287109,41.101715 1816.099976,40.398582
	C1813.820190,39.895645 1810.593750,41.062485 1808.692505,42.600403
	C1807.778442,43.339783 1808.223877,47.197899 1809.333496,48.695786
	C1811.513672,51.639263 1814.718628,51.575172 1817.667358,49.250317
	C1818.053833,48.945606 1818.344360,48.519264 1819.070435,47.511089
M404.639343,132.568298
	C401.306061,131.173065 398.339447,132.095978 397.302216,135.324158
	C396.811249,136.852097 398.334625,140.417633 399.629181,140.811295
	C401.702667,141.441818 404.981689,140.951233 406.599274,139.577835
	C409.085968,137.466507 407.808197,134.785416 404.639343,132.568298
M827.234924,141.807526
	C832.352295,139.430313 833.508362,135.553040 829.537964,133.263443
	C827.896301,132.316727 825.129028,132.421524 823.257080,133.102386
	C822.079285,133.530746 820.575623,136.664963 821.021545,137.282074
	C822.370605,139.148941 824.599548,140.379913 827.234924,141.807526
M737.277161,139.362442
	C738.480957,140.168060 739.726379,141.686829 740.879333,141.619614
	C742.826294,141.506119 745.166992,140.840561 746.471069,139.536179
	C747.360840,138.646149 747.481873,135.673920 746.668884,134.706970
	C745.485840,133.299805 743.082458,132.032227 741.324219,132.180923
	C737.742188,132.483902 735.787354,134.778687 737.277161,139.362442
M382.912537,43.778111
	C381.067169,44.587334 379.002594,45.134014 377.517212,46.374329
	C377.100616,46.722191 378.005127,49.887951 378.988068,50.372391
	C380.302612,51.020233 383.597382,50.665417 383.741028,50.127167
	C384.238220,48.264084 383.738525,46.134945 382.912537,43.778111
z"/>
<path fill="#013E59" opacity="1.000000" stroke="none"
	d="
M229.513763,69.000221
	C229.513763,103.148346 229.525497,136.796478 229.493866,170.444565
	C229.491058,173.436295 229.430130,176.459518 229.011139,179.413498
	C227.664047,188.911087 220.458054,195.907669 211.130020,195.748199
	C171.994354,195.079086 135.842926,185.359024 106.927788,157.467819
	C98.084663,148.937851 91.584236,137.941147 84.337311,127.839935
	C83.370819,126.492790 83.590805,123.330154 84.514671,121.733421
	C103.057533,89.685226 130.397385,68.340866 165.002136,55.788185
	C185.639893,48.301952 206.984604,44.420448 229.513840,42.205410
	C229.513840,51.065758 229.513840,59.782986 229.513763,69.000221
z"/>
<path fill="#E95210" opacity="1.000000" stroke="none"
	d="
M1490.149170,161.999954
	C1490.147827,167.998199 1490.196411,173.497025 1490.135132,178.994629
	C1489.999146,191.208572 1482.531738,199.195969 1470.404907,199.572601
	C1460.596802,199.877213 1450.771606,199.634369 1440.637939,199.634369
	C1440.780029,198.810516 1440.710205,198.101364 1441.011353,197.628021
	C1464.064453,161.380371 1452.941040,117.285431 1422.286377,89.751755
	C1395.921143,66.070732 1364.443115,55.054375 1329.756348,51.740406
	C1327.972778,51.570011 1326.192261,51.370285 1324.454468,51.188831
	C1324.468628,40.412029 1334.392456,31.938839 1346.027954,33.305416
	C1358.395020,34.757931 1370.796631,36.488163 1382.934570,39.206570
	C1412.303833,45.784058 1439.896118,56.886242 1463.833252,75.457748
	C1472.430054,82.127548 1479.735718,90.522362 1487.233521,98.502869
	C1489.022339,100.406822 1489.989380,103.795860 1490.024780,106.518837
	C1490.263428,124.843330 1490.149048,143.172394 1490.149170,161.999954
z"/>
<path fill="#E6027D" opacity="1.000000" stroke="none"
	d="
M1372.193604,68.807777
	C1397.547852,78.466125 1419.162842,92.474365 1433.925171,115.449471
	C1450.567139,141.349731 1450.038574,171.805710 1432.508667,197.071655
	C1431.625732,198.344009 1429.769287,199.707642 1428.350952,199.724274
	C1412.401855,199.911392 1396.449707,199.842621 1379.831543,199.842621
	C1380.562012,198.525543 1380.900146,197.658737 1381.450928,196.959534
	C1411.918945,158.292068 1394.807983,110.398621 1356.188721,90.832298
	C1351.168823,88.288986 1345.914307,86.074524 1340.558594,84.366051
	C1335.357056,82.706871 1329.885254,81.894760 1324.210449,80.639488
	C1324.210449,73.780952 1324.210449,66.703743 1324.210449,59.112141
	C1340.634155,59.931080 1356.420410,63.296005 1372.193604,68.807777
z"/>
<path fill="#A8BD3B" opacity="1.000000" stroke="none"
	d="
M1383.851318,140.344681
	C1389.291382,163.585922 1381.826172,182.247726 1365.201294,197.854477
	C1364.081787,198.905472 1362.375854,199.921448 1360.928711,199.941238
	C1348.815063,200.106827 1336.697998,200.035355 1324.256836,200.035355
	C1324.256836,164.314499 1324.256836,128.967880 1324.256836,93.621681
	C1347.912109,92.874847 1375.199219,114.134308 1383.851318,140.344681
z"/>
<path fill="#A9BE3C" opacity="1.000000" stroke="none"
	d="
M75.770874,109.648880
	C68.613365,90.804008 64.772377,71.669945 65.040642,51.813560
	C65.127762,45.365936 66.093636,38.947834 72.188652,35.168747
	C74.757881,33.575756 77.969528,32.146523 80.895958,32.133175
	C123.177277,31.940205 165.459747,32.001030 207.881546,32.001030
	C194.704910,35.275986 181.546921,37.933628 168.769821,41.837872
	C131.771729,53.143223 101.495888,74.025185 79.532722,106.284584
	C78.602531,107.650848 77.602959,108.970070 76.620201,110.299751
	C76.569206,110.368744 76.340912,110.382195 76.250107,110.328537
	C76.114906,110.248627 76.028725,110.085785 75.770874,109.648880
z"/>
<path fill="#04405C" opacity="1.000000" stroke="none"
	d="
M112.999954,195.842102
	C96.870125,195.842087 81.240295,195.842087 65.814247,195.842087
	C61.928169,172.036057 66.984665,150.396606 79.871536,130.435852
	C99.020157,165.118484 129.216187,185.822220 167.423660,195.842102
	C149.449097,195.842102 131.474533,195.842102 112.999954,195.842102
z"/>
<path fill="#04405C" opacity="1.000000" stroke="none"
	d="
M1471.377686,74.595856
	C1458.544434,64.127388 1445.038574,55.249641 1430.034180,49.170353
	C1415.192139,43.156734 1399.908813,38.231861 1386.242554,33.339077
	C1419.545410,33.339077 1454.511597,33.339077 1489.778320,33.339077
	C1489.778320,53.062618 1489.778320,72.604462 1489.778320,93.558769
	C1483.278320,86.849670 1477.458618,80.842583 1471.377686,74.595856
z"/>
<path fill="#09445F" opacity="1.000000" stroke="none"
	d="
M1685.858887,189.952423
	C1685.858887,193.093597 1685.858887,195.741547 1685.858887,198.788467
	C1682.244751,198.788467 1678.860107,198.788467 1674.810425,198.788467
	C1674.810425,192.694382 1674.810791,186.429260 1674.810425,180.164139
	C1674.810181,175.664917 1674.901611,171.163345 1674.787964,166.666977
	C1674.590942,158.873672 1668.848267,155.142563 1661.817627,158.592148
	C1660.071655,159.448761 1658.252686,162.170654 1658.184692,164.095917
	C1657.825684,174.248154 1658.016357,184.419830 1658.016357,194.584747
	C1658.016357,196.202484 1658.016479,197.820221 1658.016479,199.644806
	C1654.407104,199.644806 1651.295898,199.644806 1647.448608,199.644806
	C1647.448608,192.520691 1647.473145,185.418076 1647.439941,178.315750
	C1647.418213,173.653610 1647.760010,168.922546 1647.052490,164.359802
	C1646.709961,162.150650 1644.660522,158.986465 1642.797607,158.500015
	C1639.462524,157.629105 1635.664307,158.303284 1632.114258,158.758713
	C1631.642090,158.819275 1631.237183,161.372650 1631.229248,162.774033
	C1631.160400,174.920776 1631.189575,187.068069 1631.189575,199.535751
	C1627.495361,199.535751 1624.106445,199.535751 1620.141113,199.535751
	C1620.141113,190.963181 1620.140991,182.517120 1620.140991,174.071060
	C1620.140991,169.071915 1620.602905,164.017471 1620.012695,159.089005
	C1619.410156,154.057709 1621.672607,152.031815 1626.016724,151.402084
	C1635.568726,150.017380 1645.224976,148.047775 1652.240967,153.781265
	C1659.101685,152.395386 1664.645264,150.492950 1670.242554,150.319229
	C1679.828125,150.021698 1685.705078,156.340698 1685.836914,165.963409
	C1685.944214,173.793976 1685.858765,181.627182 1685.858887,189.952423
z"/>
<path fill="#0A4560" opacity="1.000000" stroke="none"
	d="
M1533.444336,88.994370
	C1533.444336,75.182800 1533.444336,61.869762 1533.444336,48.425335
	C1542.408325,44.196423 1551.554810,43.530087 1560.746704,46.408012
	C1569.664307,49.200108 1574.194458,56.649975 1575.509033,65.011162
	C1576.744019,72.865959 1576.835815,81.361328 1575.202637,89.104980
	C1572.297852,102.878410 1563.232300,108.472389 1548.239868,107.868790
	C1534.408447,107.311935 1533.444214,106.342300 1533.444214,92.989265
	C1533.444214,91.823814 1533.444214,90.658356 1533.444336,88.994370
M1553.662231,99.445618
	C1558.810669,98.474640 1561.732788,95.166809 1563.130615,90.326294
	C1565.817139,81.022896 1565.877441,71.607925 1563.600586,62.273804
	C1561.432983,53.387287 1553.885254,49.909737 1544.857178,53.493645
	C1544.857178,60.993835 1544.857300,68.620949 1544.857300,76.248055
	C1544.857300,83.820282 1544.857178,91.392509 1544.857178,99.263268
	C1547.967896,99.425423 1550.432739,99.553909 1553.662231,99.445618
z"/>
<path fill="#0A4560" opacity="1.000000" stroke="none"
	d="
M278.556702,169.002243
	C278.556580,177.472290 278.556580,185.442810 278.556580,193.714462
	C275.672668,193.714462 273.131897,193.714462 270.362000,193.714462
	C270.362000,174.973877 270.362000,156.394775 270.362000,137.846573
	C278.411530,136.065552 278.905273,136.232025 283.035461,142.507172
	C290.492981,153.837601 297.927094,165.183441 306.454987,176.324188
	C306.454987,163.381973 306.454987,150.439758 306.454987,137.333984
	C309.632324,137.333984 312.064941,137.333984 314.758270,137.333984
	C314.758270,156.099945 314.758270,174.675476 314.758270,193.527603
	C309.964081,194.344284 306.370209,194.138092 303.311035,188.980316
	C295.866272,176.428345 287.581116,164.374878 278.556793,152.111816
	C278.556793,157.575455 278.556793,163.039078 278.556702,169.002243
z"/>
<path fill="#09445F" opacity="1.000000" stroke="none"
	d="
M1703.250977,151.103104
	C1709.285889,151.000015 1714.989990,150.307693 1720.490234,151.075699
	C1727.156860,152.006592 1731.773438,156.406021 1734.375000,162.683441
	C1739.612915,175.322769 1736.350220,190.634720 1726.164673,196.063507
	C1720.937500,198.849548 1714.414551,199.204330 1707.624756,200.866516
	C1707.624756,205.358231 1707.624756,211.441147 1707.624756,217.765015
	C1703.904419,217.765015 1700.673828,217.765015 1696.983521,217.765015
	C1696.983521,207.536377 1696.983643,197.431702 1696.983643,187.327026
	C1696.983643,177.839935 1697.353271,168.332489 1696.832275,158.874100
	C1696.559570,153.922256 1698.409546,151.853760 1703.250977,151.103104
M1717.572876,157.295227
	C1714.357300,157.295227 1711.141602,157.295227 1708.103271,157.295227
	C1707.821777,158.098328 1707.617432,158.411041 1707.616211,158.724579
	C1707.579224,168.023270 1707.555420,177.322037 1707.544800,186.620819
	C1707.537354,193.093948 1709.993408,195.173767 1715.930054,192.389252
	C1719.007446,190.945801 1722.681396,187.511871 1723.179443,184.497192
	C1724.283936,177.809570 1723.981323,170.778198 1723.330566,163.975250
	C1723.115479,161.727066 1720.073486,159.749344 1717.572876,157.295227
z"/>
<path fill="#0E4862" opacity="1.000000" stroke="none"
	d="
M1744.787842,184.453003
	C1744.787598,173.380112 1744.787598,162.753677 1744.787598,151.781342
	C1748.454102,151.781342 1751.833862,151.781342 1755.871216,151.781342
	C1755.871216,162.253326 1755.849854,172.661453 1755.878296,183.069427
	C1755.899048,190.634918 1759.523804,193.750214 1766.803711,192.721481
	C1770.107300,192.254623 1771.608276,190.936951 1771.521484,187.228729
	C1771.264771,176.254578 1771.424316,165.270554 1771.441528,154.290421
	C1771.443115,153.321335 1771.593994,152.352493 1771.690430,151.206573
	C1775.308472,151.206573 1778.714966,151.206573 1782.559326,151.206573
	C1782.559326,165.709808 1782.627319,179.986084 1782.430176,194.258682
	C1782.414429,195.402527 1780.682739,197.363373 1779.556519,197.514420
	C1772.363525,198.479248 1765.058838,199.958099 1757.902222,199.505936
	C1749.113647,198.950623 1745.456299,194.009094 1744.787842,184.453003
z"/>
<path fill="#06425D" opacity="1.000000" stroke="none"
	d="
M1756.354492,103.432899
	C1746.985229,109.824089 1737.652588,108.739090 1727.622803,104.766747
	C1728.453003,102.013283 1729.193115,99.558960 1729.808716,97.517006
	C1733.899170,98.120171 1737.559937,98.953964 1741.251587,99.127510
	C1745.548584,99.329521 1748.698975,97.098877 1749.774292,92.886185
	C1750.848877,88.675476 1749.711304,84.836945 1745.923950,82.381897
	C1743.432739,80.767052 1740.587769,79.706436 1737.944214,78.316246
	C1730.530151,74.417358 1726.707642,66.823334 1728.333740,59.327763
	C1730.115967,51.112740 1736.781616,45.145485 1745.228638,45.066513
	C1750.042603,45.021503 1754.867188,46.118809 1760.456787,46.794842
	C1759.330200,50.289383 1758.641113,52.426842 1757.938354,54.606880
	C1755.242798,53.754601 1752.826538,52.682999 1750.301758,52.260651
	C1745.945679,51.531971 1742.334351,52.925537 1740.532593,57.269356
	C1738.801147,61.444164 1740.348511,66.234787 1744.314697,68.567039
	C1746.874146,70.072090 1749.762451,71.005699 1752.437988,72.327713
	C1765.257446,78.661903 1767.264404,93.519409 1756.354492,103.432899
z"/>
<path fill="#04405C" opacity="1.000000" stroke="none"
	d="
M1903.993164,91.996307
	C1903.993164,86.498734 1903.608643,81.464195 1904.077881,76.510513
	C1904.900879,67.822380 1901.293457,61.720413 1888.074341,66.483612
	C1888.074341,79.703545 1888.074341,93.005249 1888.074341,106.656456
	C1884.483643,106.656456 1881.102783,106.656456 1877.153809,106.656456
	C1877.153809,99.562141 1877.153931,92.452423 1877.153931,85.342705
	C1877.153931,79.844772 1877.153931,74.346832 1877.153931,68.848900
	C1877.153931,60.510887 1877.100098,60.062782 1885.225342,59.088547
	C1891.416992,58.346153 1897.850220,58.288074 1904.023804,59.093124
	C1910.416016,59.926674 1914.768066,65.196640 1914.934082,71.589607
	C1915.235718,83.210747 1915.019653,94.845314 1915.019653,106.739960
	C1911.447266,106.739960 1908.024658,106.739960 1903.993164,106.739960
	C1903.993164,102.025604 1903.993164,97.260681 1903.993164,91.996307
z"/>
<path fill="#08435E" opacity="1.000000" stroke="none"
	d="
M1981.520752,100.009552
	C1986.506836,99.539917 1991.068237,99.032883 1996.494019,98.429787
	C1996.961792,99.662239 1997.731934,101.690674 1998.675903,104.177246
	C1989.006836,108.056396 1979.655029,109.552528 1970.590210,104.456383
	C1961.806152,99.518135 1960.276001,90.608925 1960.406860,81.566826
	C1960.467773,77.359383 1961.422241,72.938530 1962.994873,69.025612
	C1966.447266,60.435417 1974.424805,56.110504 1983.370239,57.198711
	C1992.075684,58.257732 1997.468018,63.622707 1999.235474,73.186241
	C1999.741821,75.925453 1999.884644,78.731842 2000.228882,81.819839
	C1990.247070,83.607903 1980.677979,85.322021 1971.163208,87.026405
	C1971.282104,94.595139 1973.915039,97.944817 1981.520752,100.009552
M1971.289795,72.207825
	C1970.856567,75.076927 1970.423340,77.946037 1969.892456,81.462212
	C1977.149780,80.396622 1983.493774,79.465141 1989.757324,78.545479
	C1990.164429,71.091202 1987.798462,66.540169 1983.052979,65.195946
	C1978.142578,63.804970 1974.532104,65.790092 1971.289795,72.207825
z"/>
<path fill="#08435E" opacity="1.000000" stroke="none"
	d="
M1856.211670,107.140198
	C1838.514893,109.125473 1828.775513,100.567215 1828.894409,83.081711
	C1828.925537,78.523796 1829.478271,73.691902 1831.085571,69.479622
	C1834.515259,60.491482 1842.555420,56.102386 1851.689453,57.221970
	C1860.672729,58.323059 1866.314209,64.210365 1867.782471,74.222054
	C1868.138428,76.648712 1868.064209,79.138474 1868.201294,81.866692
	C1858.284668,83.643700 1848.694214,85.362297 1839.133545,87.075516
	C1840.480591,99.667313 1847.199585,102.477165 1864.512695,97.786163
	C1865.277222,99.689552 1866.058594,101.634644 1867.191162,104.454422
	C1863.504883,105.381721 1860.071655,106.245338 1856.211670,107.140198
M1857.545044,71.461304
	C1854.695190,65.795197 1850.576294,63.674995 1845.606079,65.315666
	C1840.756104,66.916618 1837.968872,73.533684 1839.121338,81.332474
	C1845.436401,80.404160 1851.752808,79.475655 1858.445190,78.491882
	C1858.207642,76.148865 1858.010010,74.199692 1857.545044,71.461304
z"/>
<path fill="#06415D" opacity="1.000000" stroke="none"
	d="
M1606.321533,154.737030
	C1607.778442,158.549622 1609.823608,162.042877 1610.013672,165.634354
	C1610.505859,174.925980 1610.305786,184.264343 1610.050537,193.574966
	C1610.010498,195.037308 1608.537720,197.273712 1607.218750,197.753296
	C1599.715942,200.481247 1591.932495,200.900726 1584.155884,198.998383
	C1578.054321,197.505844 1574.424194,193.287888 1573.878296,187.616135
	C1573.166504,180.223785 1575.140503,175.357040 1581.277710,172.791580
	C1587.324097,170.263947 1593.813354,168.795761 1600.497192,166.743378
	C1601.706177,160.629333 1598.975464,156.873123 1592.037598,157.118851
	C1587.650024,157.274216 1583.299072,158.461273 1578.533325,159.251663
	C1577.954590,157.790436 1577.238281,155.982315 1576.538452,154.215775
	C1585.159546,148.493576 1598.128052,148.656433 1606.321533,154.737030
M1596.983032,173.204132
	C1594.741577,173.778870 1592.449585,174.206573 1590.268921,174.957840
	C1585.144409,176.723312 1583.053833,180.539291 1583.653320,186.253601
	C1584.200195,191.466003 1587.638062,193.242676 1592.185425,193.465286
	C1594.705566,193.588638 1597.255493,193.102020 1599.998901,192.873093
	C1599.998901,187.526733 1599.999146,182.897598 1599.998901,178.268478
	C1599.998901,177.273010 1600.276001,176.159943 1599.919312,175.314697
	C1599.551025,174.441895 1598.565796,173.829498 1596.983032,173.204132
z"/>
<path fill="#06425D" opacity="1.000000" stroke="none"
	d="
M1694.511353,66.782768
	C1695.144775,77.064705 1695.730957,87.000786 1695.965332,96.945160
	C1696.178833,106.004105 1695.282715,107.107796 1686.198120,107.720535
	C1681.103271,108.064178 1675.864868,107.778008 1670.818115,106.976601
	C1663.954468,105.886696 1660.280396,101.725204 1659.520630,95.478394
	C1658.650635,88.326294 1661.011963,82.981308 1667.425537,80.399734
	C1673.494141,77.957008 1679.983521,76.559639 1686.413452,74.665543
	C1686.947754,64.626617 1681.508545,62.676083 1664.521606,67.478760
	C1663.739746,65.843170 1662.922119,64.132416 1661.886841,61.966579
	C1671.111084,57.892841 1680.202148,56.695499 1689.338257,61.085228
	C1691.381714,62.067055 1692.673096,64.614105 1694.511353,66.782768
M1685.785889,81.995506
	C1683.184204,82.031349 1680.471558,81.602066 1678.001953,82.191467
	C1671.006104,83.861160 1667.972656,88.596924 1669.373291,94.909653
	C1670.531860,100.131317 1675.714478,102.733185 1682.529053,101.041557
	C1683.857300,100.711830 1685.584229,98.694984 1685.693237,97.341011
	C1686.077881,92.558205 1685.839844,87.725288 1685.785889,81.995506
z"/>
<path fill="#06425D" opacity="1.000000" stroke="none"
	d="
M1587.391846,102.529053
	C1581.376465,92.638313 1584.049316,83.495384 1594.307373,79.539932
	C1599.804443,77.420273 1605.713745,76.370087 1611.457764,74.831734
	C1611.348877,64.332077 1606.594482,62.686523 1589.463501,67.500374
	C1588.679565,65.811905 1587.872681,64.074234 1586.944214,62.074570
	C1594.905762,57.995274 1603.020630,57.327465 1611.268066,59.645588
	C1617.682495,61.448517 1620.660400,66.468498 1620.816284,72.815521
	C1621.077881,83.454918 1620.887939,94.105415 1620.887939,105.262909
	C1609.436768,108.622368 1598.249146,110.614098 1587.391846,102.529053
M1594.157227,93.296051
	C1595.611694,100.219475 1602.322510,103.730545 1608.898071,100.869751
	C1609.738403,100.504158 1610.722900,99.275070 1610.747070,98.420769
	C1610.910034,92.661491 1610.831909,86.895378 1610.831909,81.147270
	C1599.468018,81.221321 1595.123291,84.284996 1594.157227,93.296051
z"/>
<path fill="#06425D" opacity="1.000000" stroke="none"
	d="
M1546.572510,138.323425
	C1554.139648,135.724945 1561.136230,135.817307 1568.158203,139.816513
	C1567.280029,142.128708 1566.535400,144.089005 1565.853149,145.885452
	C1562.849609,145.507721 1560.128418,144.980042 1557.389771,144.862518
	C1552.730347,144.662521 1549.329346,147.005051 1547.496826,151.116882
	C1542.575806,162.158859 1542.499023,173.418289 1547.248291,184.488525
	C1550.150635,191.253860 1556.810669,193.069351 1565.623413,189.782639
	C1566.440674,191.999496 1567.259155,194.220093 1568.050781,196.367462
	C1557.625610,203.118423 1544.638062,200.662292 1537.777588,190.913330
	C1529.239868,178.780411 1529.242798,157.525375 1538.133057,145.722260
	C1540.266479,142.889801 1543.504028,140.889069 1546.572510,138.323425
z"/>
<path fill="#0D4761" opacity="1.000000" stroke="none"
	d="
M497.931885,154.173248
	C498.899567,156.815613 500.250702,159.138107 500.302734,161.489365
	C500.537872,172.113724 500.405487,182.746216 500.405487,193.699005
	C497.197205,193.699005 494.151184,193.699005 490.790527,193.699005
	C490.790527,184.316544 490.791962,175.006866 490.790100,165.697174
	C490.788361,156.912216 487.832184,154.090179 479.052948,154.601883
	C477.251556,154.706879 475.465851,155.081360 473.301666,155.383438
	C473.301666,168.145554 473.301666,180.720337 473.301666,193.658142
	C470.008118,193.658142 467.113037,193.658142 463.433563,193.658142
	C463.433563,191.584229 463.433533,189.347076 463.433533,187.109940
	C463.433533,176.788193 463.641113,166.460175 463.329437,156.147842
	C463.208008,152.130737 464.638519,150.166245 468.397308,149.949921
	C475.305115,149.552368 482.258087,148.860565 489.123901,149.317642
	C492.076202,149.514191 494.857971,152.272293 497.931885,154.173248
z"/>
<path fill="#09445F" opacity="1.000000" stroke="none"
	d="
M415.433868,166.627045
	C418.238831,152.542068 427.718536,146.047821 440.748383,148.963425
	C441.550018,149.142792 442.333130,149.428650 443.102966,149.722443
	C453.659424,153.751160 458.616150,168.300766 454.067902,181.885452
	C450.514404,192.498993 440.065125,197.542511 428.728546,194.010605
	C419.446991,191.118927 416.264282,183.722702 415.208435,174.996902
	C414.892853,172.388977 415.262177,169.698181 415.433868,166.627045
M445.987976,170.609406
	C445.302765,167.223267 444.927979,163.734512 443.851440,160.477737
	C442.588043,156.655777 439.520905,154.643387 435.462494,154.657669
	C431.438812,154.671844 428.428833,156.606262 426.954285,160.396820
	C424.077850,167.791153 423.955139,175.273315 426.911377,182.677383
	C428.411987,186.435730 431.380432,188.399139 435.430969,188.388550
	C439.473480,188.377975 442.671082,186.480835 443.886444,182.647308
	C445.020477,179.070419 445.321136,175.229324 445.987976,170.609406
z"/>
<path fill="#08435E" opacity="1.000000" stroke="none"
	d="
M594.660950,156.140503
	C593.440674,146.281723 598.359070,139.185577 607.562195,136.825256
	C614.167664,135.131149 620.324341,136.273361 626.626282,139.236664
	C625.855957,141.363617 625.198730,143.178421 624.669434,144.639862
	C620.564087,144.059814 616.838806,143.113098 613.114319,143.116348
	C608.710876,143.120193 605.612854,145.503876 604.614075,150.075806
	C603.619141,154.629883 605.966309,157.363007 609.713196,159.204132
	C612.539246,160.592758 615.488220,161.728714 618.350525,163.046509
	C624.596375,165.922104 628.643616,170.410538 628.341492,177.682358
	C628.035950,185.035645 624.315063,190.166458 617.575867,193.094269
	C610.572083,196.137054 601.105408,195.594193 593.135498,191.553757
	C593.908813,189.520386 594.700195,187.439484 595.416748,185.555374
	C599.443237,186.220154 603.145386,187.230255 606.877197,187.355469
	C612.698486,187.550812 616.878174,184.414948 617.643311,179.674774
	C618.481934,174.478256 615.323730,171.694031 611.091553,169.730621
	C608.231934,168.403976 604.924011,167.616913 602.606079,165.655594
	C599.581177,163.096085 597.336853,159.614075 594.660950,156.140503
z"/>
<path fill="#0A445F" opacity="1.000000" stroke="none"
	d="
M279.023682,101.083366
	C269.787292,92.999947 268.682739,82.532150 269.392090,71.656525
	C269.636566,67.908226 270.647552,64.095451 271.959930,60.553551
	C275.370636,51.348789 282.702423,46.426437 292.202637,46.462311
	C301.650970,46.497990 309.123749,51.541862 312.525391,60.588421
	C316.232025,70.446114 316.255188,80.514030 312.743256,90.383675
	C307.638550,104.729530 292.788452,109.457214 279.023682,101.083366
M306.767181,65.134323
	C306.513885,64.343315 306.281250,63.544975 306.004028,62.762440
	C303.290314,55.102257 298.601685,51.186489 292.157166,51.186886
	C285.684418,51.187283 280.445770,55.555031 278.089172,63.224205
	C275.483032,71.705559 275.489410,80.268936 278.202301,88.716270
	C280.614258,96.226601 285.486359,99.993736 292.217407,99.986542
	C298.945892,99.979340 303.615692,96.163521 306.072876,88.573776
	C308.485748,81.121132 308.522461,73.562714 306.767181,65.134323
z"/>
<path fill="#0A445F" opacity="1.000000" stroke="none"
	d="
M689.888428,163.959381
	C689.419250,156.755325 687.373901,154.537933 680.684570,154.643005
	C676.431396,154.709839 672.191528,155.622086 667.568359,156.202621
	C667.075195,155.066315 666.436096,153.593857 665.582214,151.626343
	C673.702515,148.458206 681.600586,146.985718 689.884705,149.737457
	C695.916138,151.740891 698.543152,156.420868 698.739319,162.322617
	C699.037964,171.306046 698.941040,180.307968 698.744995,189.296219
	C698.718201,190.523102 697.388428,192.442291 696.261169,192.809021
	C688.195618,195.433029 679.946106,196.087814 671.731262,193.522888
	C665.884399,191.697311 663.148865,187.999466 662.710022,182.308563
	C662.244385,176.270157 664.770447,171.547775 670.213501,169.532700
	C676.518921,167.198364 683.262085,166.046112 689.888428,163.959381
M678.998047,189.240891
	C682.547241,189.240891 686.096375,189.240891 689.711182,189.240891
	C689.711182,181.889114 689.711182,175.817261 689.711182,169.069611
	C685.457886,170.113556 681.538330,170.804459 677.809998,172.062149
	C673.541138,173.502182 671.654114,176.846344 671.742859,181.352463
	C671.827576,185.654785 674.090759,188.082199 678.998047,189.240891
z"/>
<path fill="#09445F" opacity="1.000000" stroke="none"
	d="
M531.962769,148.868622
	C540.643555,151.170746 543.850098,154.884628 544.077820,163.292923
	C544.307678,171.777359 544.308228,180.276047 544.052673,188.757767
	C544.009277,190.199966 542.451538,192.410416 541.116333,192.865112
	C533.573730,195.433884 525.788513,195.913879 518.027832,193.851257
	C512.032593,192.257843 508.530640,188.189880 508.013123,182.791992
	C507.441254,176.827423 509.703339,171.892303 515.610291,169.522919
	C521.692444,167.083267 528.246887,165.821060 534.940430,163.946854
	C537.228577,156.580460 530.894226,151.359329 513.194336,156.681335
	C512.489746,155.131882 511.765717,153.539734 510.886292,151.605896
	C517.789612,148.936478 524.472900,147.534149 531.962769,148.868622
M518.925476,186.492462
	C523.031860,190.482559 527.977661,189.936646 532.890808,188.843643
	C533.791870,188.643173 535.008606,187.151596 535.044006,186.216812
	C535.249084,180.797134 535.144226,175.365738 535.144226,169.252808
	C531.229858,170.034561 527.780823,170.374893 524.570007,171.436157
	C517.571777,173.749298 515.483215,178.945312 518.925476,186.492462
z"/>
<path fill="#09445F" opacity="1.000000" stroke="none"
	d="
M355.224335,193.220825
	C347.738312,193.568390 340.595673,194.518875 333.611145,193.840698
	C327.181793,193.216415 323.512054,188.550583 322.977936,183.011795
	C322.343903,176.436996 324.737610,171.574417 331.143433,169.156281
	C337.126831,166.897598 343.520721,165.726334 349.864105,164.041885
	C350.415131,154.404114 345.212036,152.475143 327.996490,156.522141
	C327.343262,155.111801 326.666779,153.651260 325.740967,151.652466
	C334.184418,148.379608 342.420013,146.794815 350.948700,150.057266
	C356.397308,152.141495 358.795044,156.662689 358.929688,162.203644
	C359.148071,171.191849 359.145355,180.193207 358.864685,189.177399
	C358.822693,190.521774 356.762970,191.803116 355.224335,193.220825
M340.830261,170.997284
	C340.052460,171.273682 339.268677,171.534454 338.497864,171.829102
	C334.598419,173.319504 331.639893,175.996185 332.168182,180.274170
	C332.507477,183.021729 334.096619,187.204803 336.054993,187.829147
	C340.041168,189.100006 344.656769,188.448776 349.011810,188.418320
	C349.390533,188.415665 350.073975,187.150986 350.084839,186.464096
	C350.173065,180.897064 350.134369,175.328049 350.134369,169.322952
	C346.816681,169.916153 344.230621,170.378540 340.830261,170.997284
z"/>
<path fill="#08435E" opacity="1.000000" stroke="none"
	d="
M1789.876709,195.818848
	C1790.641968,193.429520 1791.450562,191.443954 1792.070068,189.922699
	C1795.603271,190.655975 1798.768433,191.708649 1801.978882,191.871979
	C1805.443359,192.048218 1808.097656,190.153702 1808.845337,186.555588
	C1809.604858,182.899673 1807.776367,180.499664 1804.498779,179.074219
	C1802.219482,178.083008 1799.827637,177.303925 1797.658203,176.115631
	C1788.670410,171.192459 1788.232666,158.524765 1796.793335,152.984619
	C1802.271118,149.439606 1812.443604,150.001450 1818.172485,154.351410
	C1817.519409,156.073608 1816.832397,157.885147 1816.188843,159.582382
	C1813.040527,159.017303 1810.096558,157.860443 1807.339355,158.203979
	C1805.335327,158.453705 1802.570435,160.358490 1801.993774,162.127975
	C1801.411865,163.913773 1802.528198,166.993225 1803.958618,168.503998
	C1805.677002,170.318878 1808.479126,171.147720 1810.872192,172.275864
	C1817.508789,175.404541 1820.768555,180.742844 1819.973389,187.335159
	C1819.219604,193.586090 1814.375244,198.288895 1807.080200,199.215088
	C1801.132202,199.970245 1795.132568,200.109009 1789.876709,195.818848
z"/>
<path fill="#07425D" opacity="1.000000" stroke="none"
	d="
M1641.932617,46.188095
	C1643.291626,45.917202 1644.263184,45.740566 1645.701172,45.479107
	C1645.701172,49.953564 1645.701172,54.193703 1645.701172,58.724056
	C1648.520142,58.898838 1650.938354,59.048786 1653.592773,59.213364
	C1653.592773,61.449535 1653.592773,63.521034 1653.592773,65.933296
	C1651.220947,66.070091 1648.951538,66.200981 1645.852295,66.379738
	C1645.852295,72.738846 1645.852295,79.151917 1645.852295,85.564987
	C1645.852295,87.897583 1645.843384,90.230209 1645.853882,92.562759
	C1645.884521,99.373543 1646.570068,100.138885 1653.382568,101.006981
	C1654.371338,107.785660 1654.037109,108.173012 1647.396973,107.943764
	C1639.854370,107.683350 1634.944946,102.862007 1634.847534,95.288651
	C1634.725830,85.819405 1634.818359,76.347404 1634.818359,66.589294
	C1632.782837,66.339043 1631.060303,66.127274 1629.173218,65.895271
	C1629.173218,63.675060 1629.173218,61.571285 1629.173218,59.189392
	C1630.903809,59.067749 1632.513306,58.954609 1634.601562,58.807819
	C1634.601562,55.399883 1634.601562,51.987843 1634.601562,48.390022
	C1637.172119,47.609756 1639.358521,46.946056 1641.932617,46.188095
z"/>
<path fill="#07425D" opacity="1.000000" stroke="none"
	d="
M1930.746216,62.719406
	C1938.024536,56.738503 1946.092163,56.020992 1953.816040,60.634346
	C1953.253784,62.409237 1952.668335,64.257187 1951.958496,66.497635
	C1950.748901,66.164146 1949.722046,65.848511 1948.679321,65.598885
	C1942.449341,64.107544 1937.262329,66.659943 1936.171265,72.955917
	C1935.197266,78.576714 1934.871704,84.607147 1935.813232,90.195145
	C1937.352417,99.331413 1942.910889,101.769699 1951.864990,98.079185
	C1952.690918,100.178223 1953.514160,102.270401 1954.291260,104.245392
	C1946.253052,110.299171 1935.443726,108.942413 1929.517700,101.457039
	C1921.326660,91.110657 1921.763062,73.639977 1930.746216,62.719406
z"/>
<path fill="#06415D" opacity="1.000000" stroke="none"
	d="
M1781.114014,106.128952
	C1767.494507,98.946060 1766.283936,72.600624 1776.898804,62.635101
	C1783.034912,56.874474 1792.425171,55.888302 1799.964844,60.721207
	C1799.394775,62.522243 1798.806030,64.382599 1798.140137,66.486626
	C1796.288086,66.024895 1794.639282,65.391838 1792.945923,65.232643
	C1787.520752,64.722610 1783.101074,67.302864 1782.297607,72.800217
	C1781.426514,78.760277 1781.141724,85.074005 1782.136475,90.974670
	C1783.549805,99.358215 1789.451172,101.700974 1797.895508,97.933983
	C1798.722656,100.043304 1799.542236,102.133392 1800.451294,104.451675
	C1794.298950,109.199699 1787.977417,108.706848 1781.114014,106.128952
z"/>
<path fill="#0D4761" opacity="1.000000" stroke="none"
	d="
M523.996338,66.094406
	C529.132019,58.897854 536.204773,57.750801 543.763794,59.209255
	C551.271240,60.657749 555.827942,66.051956 556.802673,73.246979
	C557.650269,79.503098 557.616455,86.207207 556.288696,92.349449
	C554.470825,100.758888 547.943420,105.001762 539.500549,105.179832
	C530.725342,105.364906 524.365662,101.225807 521.674561,92.879997
	C518.765503,83.858253 518.950439,74.899773 523.996338,66.094406
M545.233459,65.037369
	C538.652222,61.938808 533.298584,62.986893 529.858521,68.047279
	C525.453430,74.527199 525.501892,89.330025 529.948975,95.690941
	C534.510010,102.214844 544.118408,102.021469 548.395020,95.319702
	C553.501221,87.317894 552.232788,72.437599 545.233459,65.037369
z"/>
<path fill="#0A445F" opacity="1.000000" stroke="none"
	d="
M887.875671,195.013977
	C883.120605,194.238235 878.812683,193.459305 874.023621,192.593384
	C875.130981,189.757233 875.828491,187.970856 876.382751,186.551376
	C880.276306,187.111359 883.816406,187.905518 887.383301,188.053894
	C891.001465,188.204422 893.962646,186.487320 894.891357,182.777145
	C895.859680,178.908783 893.694092,176.460449 890.310913,174.963257
	C887.885437,173.889862 885.388062,172.976303 882.978638,171.869858
	C878.969543,170.028809 876.108093,167.286697 875.867676,162.516525
	C875.606934,157.343216 877.751221,153.351334 882.166260,150.925339
	C889.315430,146.996979 896.442200,148.082870 903.784363,151.631516
	C902.913757,153.564255 902.190063,155.170731 901.672363,156.320038
	C898.031921,155.816391 894.674133,154.608444 891.652466,155.179382
	C889.412842,155.602539 886.538574,158.035660 885.946228,160.136993
	C885.458435,161.867523 887.415466,165.025925 889.176697,166.465775
	C891.399231,168.282898 894.553284,168.933548 897.251587,170.202072
	C901.724243,172.304764 904.993652,175.333481 905.023926,180.754883
	C905.054077,186.157776 902.367859,190.058533 897.781433,192.325821
	C894.892212,193.754120 891.493103,194.151154 887.875671,195.013977
z"/>
<path fill="#08435E" opacity="1.000000" stroke="none"
	d="
M764.794434,149.531189
	C771.343140,147.850830 777.285400,148.308701 783.372253,151.700882
	C782.628357,153.441269 781.941101,155.049271 781.413208,156.284195
	C777.638672,155.809799 774.168945,154.703445 770.950928,155.206665
	C768.831055,155.538177 765.917236,157.930405 765.485229,159.872818
	C765.068481,161.746658 766.863098,164.870895 768.620544,166.283951
	C770.990723,168.189774 774.265747,168.959976 777.132996,170.260345
	C781.541748,172.259766 784.522278,175.513397 784.752563,180.469070
	C784.987976,185.535278 782.486389,189.356415 778.246582,192.054291
	C771.813904,196.147461 762.191040,196.030945 754.115479,191.553360
	C754.812134,189.861267 755.534607,188.106430 756.152466,186.605652
	C760.092102,187.132599 763.779785,187.923416 767.488281,188.037720
	C771.159302,188.150864 773.972229,186.161758 774.804321,182.484619
	C775.634155,178.817474 773.343201,176.533127 770.305664,175.015671
	C768.532104,174.129623 766.633728,173.492310 764.787292,172.753540
	C759.729492,170.729858 755.500061,167.899002 755.586975,161.719635
	C755.671509,155.713058 759.012268,151.881561 764.794434,149.531189
z"/>
<path fill="#104A64" opacity="1.000000" stroke="none"
	d="
M639.418945,160.059525
	C640.420593,154.350601 636.111389,155.988510 633.420776,155.231140
	C633.420776,153.425491 633.420776,151.692200 633.420776,149.769211
	C635.291077,149.551605 637.067139,149.344955 639.458801,149.066681
	C637.990417,141.693771 640.308716,137.041321 649.013977,137.588425
	C649.013977,141.264450 649.013977,145.187271 649.013977,149.430481
	C651.921997,149.430481 654.375610,149.430481 657.328796,149.430481
	C657.420959,151.459335 657.499390,153.186020 657.597168,155.338623
	C654.629944,155.491333 652.038696,155.624695 649.056274,155.778183
	C649.056274,165.044418 648.884338,174.187897 649.124878,183.320511
	C649.255737,188.288727 653.339600,188.540848 657.044678,188.748566
	C657.918091,194.354416 657.453186,194.911865 652.049072,194.877594
	C644.258850,194.828186 639.587769,190.363342 639.448059,182.546890
	C639.317078,175.216690 639.419434,167.882339 639.418945,160.059525
z"/>
<path fill="#0F4863" opacity="1.000000" stroke="none"
	d="
M809.302612,188.155960
	C811.000793,188.429810 812.278503,188.584427 813.790527,188.767410
	C813.790527,190.350296 813.790527,191.951752 813.790527,193.563934
	C804.423767,197.504242 796.153564,192.250488 795.999390,182.099365
	C795.868042,173.452866 795.972290,164.802780 795.972290,155.914154
	C793.979736,155.720734 792.219604,155.549866 790.122070,155.346268
	C790.122070,153.606552 790.122070,151.856583 790.122070,149.758179
	C791.767395,149.583282 793.521179,149.396851 795.554749,149.180679
	C795.909424,146.059250 795.310425,142.207275 796.927795,139.928024
	C798.267883,138.039337 802.221252,138.004929 805.601318,136.970032
	C805.601318,141.357590 805.601318,145.111160 805.601318,149.156021
	C808.477722,149.319733 810.913513,149.458374 813.789673,149.622086
	C813.880188,151.421555 813.967285,153.152603 814.075256,155.299530
	C811.240601,155.479187 808.678284,155.641571 805.651611,155.833389
	C805.651611,165.170029 805.498413,174.281921 805.796936,183.379013
	C805.848938,184.963593 807.805359,186.485733 809.302612,188.155960
z"/>
<path fill="#0D4761" opacity="1.000000" stroke="none"
	d="
M463.255554,68.954071
	C464.109619,72.680489 464.806549,76.047279 465.650238,80.123070
	C454.858459,81.668068 444.744080,83.116089 434.657440,84.560143
	C433.092773,97.331024 443.511414,102.580727 461.596375,98.015923
	C462.097168,99.282951 462.612122,100.585709 463.112915,101.852722
	C452.342316,107.476326 438.712372,105.700989 432.517639,98.075638
	C426.047150,90.110847 426.164642,73.585999 432.440216,65.194237
	C439.505005,55.747135 458.828064,55.973080 463.255554,68.954071
M458.149841,72.507881
	C455.815308,65.107666 450.696136,61.766293 444.056458,63.308865
	C437.056946,64.935036 432.857819,72.595436 434.443298,80.938377
	C441.341400,79.967903 448.220978,78.754257 455.153595,78.123985
	C458.855225,77.787445 459.260193,76.205101 458.149841,72.507881
z"/>
<path fill="#08435E" opacity="1.000000" stroke="none"
	d="
M715.924072,192.158722
	C714.345337,188.473587 712.212097,185.062836 711.987305,181.530624
	C711.450684,173.100403 711.814209,164.612915 711.814209,155.937775
	C709.726990,155.700134 707.959961,155.498947 705.829712,155.256409
	C705.829712,153.497086 705.829712,151.781921 705.829712,149.789551
	C707.617615,149.584244 709.380920,149.381775 711.787231,149.105469
	C710.748108,142.252548 712.084961,136.861237 721.170166,137.786865
	C721.170166,141.311508 721.170166,145.078461 721.170166,149.160843
	C724.171753,149.353195 726.757874,149.518921 729.590942,149.700485
	C729.590942,151.629654 729.590942,153.352859 729.590942,155.277527
	C726.784668,155.468414 724.194031,155.644623 721.248291,155.845001
	C721.248291,165.076050 721.044556,174.032166 721.328247,182.972809
	C721.486755,187.966553 725.503723,188.712997 729.656799,188.719040
	C729.656799,190.567322 729.656799,192.178497 729.656799,193.850418
	C724.796448,195.709839 720.411072,195.035294 715.924072,192.158722
z"/>
<path fill="#07425D" opacity="1.000000" stroke="none"
	d="
M371.988312,178.886658
	C371.988312,170.936768 371.988312,163.469650 371.988312,155.827423
	C369.905731,155.639801 368.133545,155.480133 366.098083,155.296753
	C366.098083,153.412140 366.098083,151.666748 366.098083,149.748230
	C368.008392,149.567108 369.800293,149.397202 371.682495,149.218750
	C371.944489,146.060486 371.269165,142.364883 372.753845,140.061584
	C373.933990,138.230713 377.755188,138.102188 381.108032,136.982742
	C381.108032,141.318222 381.108032,145.180908 381.108032,149.226974
	C384.330963,149.391754 386.950012,149.525650 389.783447,149.670502
	C389.783447,151.610123 389.783447,153.361343 389.783447,155.321487
	C387.010193,155.471069 384.391541,155.612289 381.450378,155.770920
	C381.450378,165.031067 381.232239,174.123322 381.540100,183.197754
	C381.699982,187.910507 385.358276,188.866074 389.702789,188.507553
	C389.702789,190.400955 389.702789,192.129913 389.702789,193.845169
	C378.486481,197.344971 371.990417,192.013550 371.988312,178.886658
z"/>
<path fill="#0E4862" opacity="1.000000" stroke="none"
	d="
M562.551270,193.879074
	C559.617615,193.999405 557.126526,193.999405 554.305054,193.999405
	C554.305054,172.498489 554.305054,151.110931 554.305054,129.427246
	C557.207275,129.427246 560.102600,129.427246 563.570312,129.427246
	C563.570312,131.179688 563.570312,132.803284 563.570312,134.426880
	C563.570312,152.584656 563.584900,170.742462 563.545227,188.900146
	C563.541687,190.520065 563.185974,192.139236 562.551270,193.879074
z"/>
<path fill="#08435E" opacity="1.000000" stroke="none"
	d="
M864.864746,187.451599
	C869.981201,184.838013 868.096619,190.166153 870.151978,190.987061
	C861.500916,198.597305 847.352783,195.364792 842.213562,184.633621
	C838.200500,176.254166 838.148499,167.485306 842.037842,159.042694
	C846.905640,148.476059 859.277222,145.193207 869.816956,151.613266
	C869.244812,153.178879 868.647034,154.814880 868.053955,156.437836
	C856.775269,152.928696 851.218079,156.158310 849.708740,167.471497
	C849.196350,171.312042 849.542786,175.488251 850.500122,179.256165
	C852.299744,186.339279 856.844543,188.762787 864.864746,187.451599
z"/>
<path fill="#154D67" opacity="1.000000" stroke="none"
	d="
M337.130127,59.954391
	C339.575806,59.958778 341.570374,59.958778 343.544006,59.958778
	C344.045288,63.150867 344.045288,63.150867 334.996063,64.398140
	C334.996063,77.446236 334.996063,90.544609 334.996063,103.936150
	C332.757568,103.936150 330.842804,103.936150 328.525391,103.936150
	C328.525391,90.733582 328.525391,77.658104 328.525391,65.213074
	C326.678375,62.376526 320.959290,66.424614 321.985718,60.054077
	C323.973785,60.054077 325.896362,60.054077 328.130829,60.054077
	C328.763153,53.768620 327.256104,46.930653 332.954071,42.777378
	C335.742798,40.744671 339.463470,39.990601 343.001770,38.561096
	C344.353821,41.773815 344.952820,43.267178 341.301758,44.168835
	C334.957306,45.735649 332.412262,55.151031 337.130127,59.954391
z"/>
<path fill="#124B65" opacity="1.000000" stroke="none"
	d="
M370.861023,41.189747
	C370.579041,42.289223 370.344391,43.591991 369.979889,43.629387
	C361.850769,44.463478 361.560944,50.344158 361.593140,56.449604
	C361.598358,57.438835 361.685852,58.427628 361.757690,59.863132
	C364.744568,59.863132 367.671387,59.863132 370.598236,59.863132
	C370.876984,60.352032 371.155731,60.840935 371.434479,61.329834
	C370.338593,62.180016 369.346649,63.500896 368.122742,63.771114
	C366.241058,64.186546 364.200073,63.880390 361.833374,63.880390
	C361.833374,77.285660 361.833374,90.362595 361.833374,103.830696
	C359.392700,103.830696 357.349854,103.830696 355.004944,103.830696
	C355.004944,90.691666 355.004944,77.584694 355.004944,64.852928
	C353.176727,62.550034 347.728363,66.131042 348.654358,60.134151
	C350.702118,60.039055 352.501007,59.955521 354.738312,59.851627
	C354.862061,57.302315 354.884705,54.697544 355.133331,52.114529
	C355.880188,44.355167 361.034485,39.495380 368.548248,39.515656
	C369.315918,39.517723 370.081360,40.354317 370.861023,41.189747
z"/>
<path fill="#06415D" opacity="1.000000" stroke="none"
	d="
M1808.149536,74.005241
	C1808.149536,68.880005 1808.149536,64.253746 1808.149536,59.311317
	C1811.830811,59.311317 1815.217041,59.311317 1818.896729,59.311317
	C1818.896729,74.999130 1818.896729,90.696159 1818.896729,106.702576
	C1815.560791,106.702576 1812.160767,106.702576 1808.149536,106.702576
	C1808.149536,95.981621 1808.149536,85.242912 1808.149536,74.005241
z"/>
<path fill="#09445F" opacity="1.000000" stroke="none"
	d="
M506.188995,80.003220
	C506.188995,88.150902 506.188995,95.799492 506.188995,103.816338
	C504.140442,103.816338 502.284119,103.816338 500.077148,103.816338
	C500.077148,90.685272 500.077148,77.582840 500.077148,64.966560
	C498.157654,62.268593 492.605621,66.546890 493.292480,60.248032
	C495.394379,60.097649 497.480713,59.948380 499.528625,59.801861
	C501.833038,42.009590 503.389587,39.958199 515.594238,39.660122
	C515.125061,41.194424 514.885315,43.539688 514.309937,43.625149
	C506.050110,44.851997 506.467377,50.947361 506.557617,56.907997
	C506.570160,57.737408 506.644165,58.565884 506.710327,59.770447
	C509.648193,59.904041 512.572998,60.037037 515.489380,60.169651
	C515.399170,63.300175 515.399170,63.300175 506.188995,64.237167
	C506.188995,69.274887 506.188995,74.389503 506.188995,80.003220
z"/>
<path fill="#0D4761" opacity="1.000000" stroke="none"
	d="
M393.925507,77.718559
	C395.994781,61.578945 408.026276,55.813282 420.319733,60.014656
	C423.303101,61.034248 423.880524,62.672543 421.590332,65.020439
	C408.685913,61.063816 401.976685,65.465981 400.562439,79.101158
	C400.226593,82.339111 400.521332,85.796303 401.291565,88.966675
	C403.726288,98.988228 411.069092,102.274803 421.289001,98.201141
	C423.976746,101.187790 423.115173,102.876999 419.474487,104.138199
	C407.392914,108.323479 395.660828,100.586334 394.060974,87.110374
	C393.709808,84.152374 393.923767,81.127281 393.925507,77.718559
z"/>
<path fill="#0F4863" opacity="1.000000" stroke="none"
	d="
M821.539673,150.747894
	C824.628662,149.923370 827.630005,149.520905 830.961548,149.074173
	C830.961548,164.385574 830.961548,178.960129 830.961548,193.782166
	C828.018433,193.782166 825.090515,193.782166 821.451965,193.782166
	C821.451965,179.595856 821.451965,165.382904 821.539673,150.747894
z"/>
<path fill="#0F4863" opacity="1.000000" stroke="none"
	d="
M407.028229,178.996155
	C407.028229,184.130493 407.028229,188.765533 407.028229,193.713470
	C403.909119,193.713470 401.006866,193.713470 397.758636,193.713470
	C397.758636,179.248154 397.758636,164.713486 397.758636,149.802368
	C400.635468,149.802368 403.520294,149.802368 407.028229,149.802368
	C407.028229,159.352966 407.028229,168.924896 407.028229,178.996155
z"/>
<path fill="#0F4863" opacity="1.000000" stroke="none"
	d="
M737.125732,188.840698
	C737.125732,175.574158 737.125732,162.791656 737.125732,149.721268
	C740.475342,149.721268 743.388062,149.721268 746.589111,149.721268
	C746.589111,164.460403 746.589111,179.006393 746.589111,193.790924
	C743.504089,193.790924 740.587158,193.790924 737.361511,193.790924
	C737.278870,192.224899 737.202332,190.774811 737.125732,188.840698
z"/>
<path fill="#124B65" opacity="1.000000" stroke="none"
	d="
M569.268677,104.222656
	C568.045959,103.154510 566.536133,102.097366 566.520874,101.019089
	C566.351868,89.061417 566.530029,77.098587 566.333740,65.141762
	C566.283997,62.115616 567.625916,60.780212 570.143372,60.395306
	C575.645996,59.553959 581.183838,58.942799 587.570679,58.127384
	C586.846741,60.776936 586.435242,62.282761 586.040100,63.728989
	C573.033569,63.076889 573.033508,63.076889 573.033508,76.124153
	C573.033508,84.429741 572.913879,92.738022 573.100769,101.039398
	C573.163086,103.806084 572.154297,104.596947 569.268677,104.222656
z"/>
<path fill="#124B65" opacity="1.000000" stroke="none"
	d="
M377.966339,65.227997
	C377.966339,63.273308 377.966339,61.784912 377.966339,60.039875
	C380.088440,60.039875 382.017151,60.039875 384.267273,60.039875
	C384.267273,74.623795 384.267273,89.140259 384.267273,103.941261
	C382.310455,103.941261 380.391327,103.941261 377.966339,103.941261
	C377.966339,91.168228 377.966339,78.431259 377.966339,65.227997
z"/>
<path fill="#ABC042" opacity="1.000000" stroke="none"
	d="
M71.885529,113.033401
	C71.962189,115.105179 72.419945,117.031082 71.782875,118.473389
	C70.047844,122.401443 67.850052,126.125099 65.361877,130.824539
	C65.361877,118.103317 65.361877,106.316269 65.361877,94.372192
	C67.513672,100.518089 69.640434,106.592514 71.885529,113.033401
z"/>
<path fill="#0A4560" opacity="1.000000" stroke="none"
	d="
M1818.874756,47.830147
	C1818.344360,48.519264 1818.053833,48.945606 1817.667358,49.250317
	C1814.718628,51.575172 1811.513672,51.639263 1809.333496,48.695786
	C1808.223877,47.197899 1807.778442,43.339783 1808.692505,42.600403
	C1810.593750,41.062485 1813.820190,39.895645 1816.099976,40.398582
	C1819.287109,41.101715 1820.677734,44.036572 1818.874756,47.830147
z"/>
<path fill="#0D4761" opacity="1.000000" stroke="none"
	d="
M404.983826,132.748199
	C407.808197,134.785416 409.085968,137.466507 406.599274,139.577835
	C404.981689,140.951233 401.702667,141.441818 399.629181,140.811295
	C398.334625,140.417633 396.811249,136.852097 397.302216,135.324158
	C398.339447,132.095978 401.306061,131.173065 404.983826,132.748199
z"/>
<path fill="#0D4761" opacity="1.000000" stroke="none"
	d="
M826.860229,141.833130
	C824.599548,140.379913 822.370605,139.148941 821.021545,137.282074
	C820.575623,136.664963 822.079285,133.530746 823.257080,133.102386
	C825.129028,132.421524 827.896301,132.316727 829.537964,133.263443
	C833.508362,135.553040 832.352295,139.430313 826.860229,141.833130
z"/>
<path fill="#104A64" opacity="1.000000" stroke="none"
	d="
M737.108398,139.038315
	C735.787354,134.778687 737.742188,132.483902 741.324219,132.180923
	C743.082458,132.032227 745.485840,133.299805 746.668884,134.706970
	C747.481873,135.673920 747.360840,138.646149 746.471069,139.536179
	C745.166992,140.840561 742.826294,141.506119 740.879333,141.619614
	C739.726379,141.686829 738.480957,140.168060 737.108398,139.038315
z"/>
<path fill="#104A64" opacity="1.000000" stroke="none"
	d="
M383.265381,43.942589
	C383.738525,46.134945 384.238220,48.264084 383.741028,50.127167
	C383.597382,50.665417 380.302612,51.020233 378.988068,50.372391
	C378.005127,49.887951 377.100616,46.722191 377.517212,46.374329
	C379.002594,45.134014 381.067169,44.587334 383.265381,43.942589
z"/>
<path fill="#FDFDFD" opacity="1.000000" stroke="none"
	d="
M1553.279907,99.564011
	C1550.432739,99.553909 1547.967896,99.425423 1544.857178,99.263268
	C1544.857178,91.392509 1544.857300,83.820282 1544.857300,76.248055
	C1544.857300,68.620949 1544.857178,60.993835 1544.857178,53.493645
	C1553.885254,49.909737 1561.432983,53.387287 1563.600586,62.273804
	C1565.877441,71.607925 1565.817139,81.022896 1563.130615,90.326294
	C1561.732788,95.166809 1558.810669,98.474640 1553.279907,99.564011
z"/>
<path fill="#FCFDFD" opacity="1.000000" stroke="none"
	d="
M1717.948486,157.471588
	C1720.073486,159.749344 1723.115479,161.727066 1723.330566,163.975250
	C1723.981323,170.778198 1724.283936,177.809570 1723.179443,184.497192
	C1722.681396,187.511871 1719.007446,190.945801 1715.930054,192.389252
	C1709.993408,195.173767 1707.537354,193.093948 1707.544800,186.620819
	C1707.555420,177.322037 1707.579224,168.023270 1707.616211,158.724579
	C1707.617432,158.411041 1707.821777,158.098328 1708.103271,157.295227
	C1711.141602,157.295227 1714.357300,157.295227 1717.948486,157.471588
z"/>
<path fill="#F6F8F9" opacity="1.000000" stroke="none"
	d="
M1971.456909,71.843788
	C1974.532104,65.790092 1978.142578,63.804970 1983.052979,65.195946
	C1987.798462,66.540169 1990.164429,71.091202 1989.757324,78.545479
	C1983.493774,79.465141 1977.149780,80.396622 1969.892456,81.462212
	C1970.423340,77.946037 1970.856567,75.076927 1971.456909,71.843788
z"/>
<path fill="#F6F8F9" opacity="1.000000" stroke="none"
	d="
M1857.678711,71.855911
	C1858.010010,74.199692 1858.207642,76.148865 1858.445190,78.491882
	C1851.752808,79.475655 1845.436401,80.404160 1839.121338,81.332474
	C1837.968872,73.533684 1840.756104,66.916618 1845.606079,65.315666
	C1850.576294,63.674995 1854.695190,65.795197 1857.678711,71.855911
z"/>
<path fill="#FAFBFC" opacity="1.000000" stroke="none"
	d="
M1597.416748,173.153656
	C1598.565796,173.829498 1599.551025,174.441895 1599.919312,175.314697
	C1600.276001,176.159943 1599.998901,177.273010 1599.998901,178.268478
	C1599.999146,182.897598 1599.998901,187.526733 1599.998901,192.873093
	C1597.255493,193.102020 1594.705566,193.588638 1592.185425,193.465286
	C1587.638062,193.242676 1584.200195,191.466003 1583.653320,186.253601
	C1583.053833,180.539291 1585.144409,176.723312 1590.268921,174.957840
	C1592.449585,174.206573 1594.741577,173.778870 1597.416748,173.153656
z"/>
<path fill="#F4F7F8" opacity="1.000000" stroke="none"
	d="
M1685.811890,82.453445
	C1685.839844,87.725288 1686.077881,92.558205 1685.693237,97.341011
	C1685.584229,98.694984 1683.857300,100.711830 1682.529053,101.041557
	C1675.714478,102.733185 1670.531860,100.131317 1669.373291,94.909653
	C1667.972656,88.596924 1671.006104,83.861160 1678.001953,82.191467
	C1680.471558,81.602066 1683.184204,82.031349 1685.811890,82.453445
z"/>
<path fill="#F4F7F8" opacity="1.000000" stroke="none"
	d="
M1594.156494,92.894974
	C1595.123291,84.284996 1599.468018,81.221321 1610.831909,81.147270
	C1610.831909,86.895378 1610.910034,92.661491 1610.747070,98.420769
	C1610.722900,99.275070 1609.738403,100.504158 1608.898071,100.869751
	C1602.322510,103.730545 1595.611694,100.219475 1594.156494,92.894974
z"/>
<path fill="#FCFDFD" opacity="1.000000" stroke="none"
	d="
M445.988281,171.056976
	C445.321136,175.229324 445.020477,179.070419 443.886444,182.647308
	C442.671082,186.480835 439.473480,188.377975 435.430969,188.388550
	C431.380432,188.399139 428.411987,186.435730 426.911377,182.677383
	C423.955139,175.273315 424.077850,167.791153 426.954285,160.396820
	C428.428833,156.606262 431.438812,154.671844 435.462494,154.657669
	C439.520905,154.643387 442.588043,156.655777 443.851440,160.477737
	C444.927979,163.734512 445.302765,167.223267 445.988281,171.056976
z"/>
<path fill="#FCFDFD" opacity="1.000000" stroke="none"
	d="
M306.849945,65.542206
	C308.522461,73.562714 308.485748,81.121132 306.072876,88.573776
	C303.615692,96.163521 298.945892,99.979340 292.217407,99.986542
	C285.486359,99.993736 280.614258,96.226601 278.202301,88.716270
	C275.489410,80.268936 275.483032,71.705559 278.089172,63.224205
	C280.445770,55.555031 285.684418,51.187283 292.157166,51.186886
	C298.601685,51.186489 303.290314,55.102257 306.004028,62.762440
	C306.281250,63.544975 306.513885,64.343315 306.849945,65.542206
z"/>
<path fill="#FAFBFC" opacity="1.000000" stroke="none"
	d="
M678.565918,189.156006
	C674.090759,188.082199 671.827576,185.654785 671.742859,181.352463
	C671.654114,176.846344 673.541138,173.502182 677.809998,172.062149
	C681.538330,170.804459 685.457886,170.113556 689.711182,169.069611
	C689.711182,175.817261 689.711182,181.889114 689.711182,189.240891
	C686.096375,189.240891 682.547241,189.240891 678.565918,189.156006
z"/>
<path fill="#FAFBFC" opacity="1.000000" stroke="none"
	d="
M518.656372,186.200333
	C515.483215,178.945312 517.571777,173.749298 524.570007,171.436157
	C527.780823,170.374893 531.229858,170.034561 535.144226,169.252808
	C535.144226,175.365738 535.249084,180.797134 535.044006,186.216812
	C535.008606,187.151596 533.791870,188.643173 532.890808,188.843643
	C527.977661,189.936646 523.031860,190.482559 518.656372,186.200333
z"/>
<path fill="#FAFBFC" opacity="1.000000" stroke="none"
	d="
M341.237427,170.919098
	C344.230621,170.378540 346.816681,169.916153 350.134369,169.322952
	C350.134369,175.328049 350.173065,180.897064 350.084839,186.464096
	C350.073975,187.150986 349.390533,188.415665 349.011810,188.418320
	C344.656769,188.448776 340.041168,189.100006 336.054993,187.829147
	C334.096619,187.204803 332.507477,183.021729 332.168182,180.274170
	C331.639893,175.996185 334.598419,173.319504 338.497864,171.829102
	C339.268677,171.534454 340.052460,171.273682 341.237427,170.919098
z"/>
<path fill="#FCFDFD" opacity="1.000000" stroke="none"
	d="
M545.542664,65.261200
	C552.232788,72.437599 553.501221,87.317894 548.395020,95.319702
	C544.118408,102.021469 534.510010,102.214844 529.948975,95.690941
	C525.501892,89.330025 525.453430,74.527199 529.858521,68.047279
	C533.298584,62.986893 538.652222,61.938808 545.542664,65.261200
z"/>
<path fill="#F8FAFB" opacity="1.000000" stroke="none"
	d="
M458.223145,72.896790
	C459.260193,76.205101 458.855225,77.787445 455.153595,78.123985
	C448.220978,78.754257 441.341400,79.967903 434.443298,80.938377
	C432.857819,72.595436 437.056946,64.935036 444.056458,63.308865
	C450.696136,61.766293 455.815308,65.107666 458.223145,72.896790
z"/>
</svg>
